<?xml version="1.0" encoding="UTF-8"?>
<!DOCTYPE svg PUBLIC "-//W3C//DTD SVG 1.1//EN" "http://www.w3.org/Graphics/SVG/1.1/DTD/svg11.dtd">
<!-- Creator: CorelDRAW X8 -->
<svg xmlns="http://www.w3.org/2000/svg" xml:space="preserve" width="2.82222E+06px" height="1.56986E+06px" version="1.1" style="shape-rendering:geometricPrecision; text-rendering:geometricPrecision; image-rendering:optimizeQuality; fill-rule:evenodd; clip-rule:evenodd"
viewBox="0 0 2822222 1567901"
 xmlns:xlink="http://www.w3.org/1999/xlink">
 <defs>
  <style type="text/css">
   <![CDATA[
    .str1 {stroke:#FEFEFE;stroke-width:6271.6}
    .str0 {stroke:#2B2A29;stroke-width:6271.6}
    .fil0 {fill:none}
    .fil2 {fill:#2A2346}
    .fil3 {fill:#5B5B5B;fill-rule:nonzero}
    .fil1 {fill:#2A2346;fill-rule:nonzero}
   ]]>
  </style>
     <clipPath id="id0">
      <path d="M1399543 195781c51863,0 101164,10931 145759,30577 -6081,-634 -12255,-953 -18533,-953 -27373,0 -48856,4857 -65134,14217 0,36727 7269,69283 21487,98026 24939,-13842 50913,-20763 77946,-20763 36037,0 65131,13503 87295,40161 22518,26688 33616,63067 33616,109126 0,123346 -53692,239741 -161105,349585l0 -28410c0,-27031 -4491,-55780 -13503,-85924 -9009,-30154 -33265,-73460 -72051,-130268 -39505,-56814 -62362,-102553 -69311,-137878l-14190 0c-6579,52311 -27027,102895 -61327,151400 -11072,15227 -26657,39476 -46425,72405 -20085,32211 -36021,55780 -48489,71368l31866 27344 46429 -69966c23879,-36381 43308,-62361 58893,-77950 77950,110164 117423,196088 118490,257760 0,14353 -1242,31446 -3704,50741 -15710,2085 -31728,3176 -48009,3176 -199867,0 -361887,-162027 -361887,-361887 0,-199864 162020,-361887 361887,-361887zm-135695 169026c31000,0 56134,25927 56134,57893 0,31969 -25134,57893 -56134,57893 -31001,0 -56131,-25924 -56131,-57893 0,-31966 25130,-57893 56131,-57893zm443295 2167c34406,55368 54287,120709 54287,190694 0,172438 -120612,316691 -282078,353038 162686,-140368 244189,-288055 244189,-442791 0,-36962 -5460,-70606 -16398,-100941z"/>
     </clipPath>
 </defs>
 <g id="Слой_x0020_1">
  <metadata id="CorelCorpID_0Corel-Layer"/>
  <g id="_665864957648">
   <rect class="fil0 str0" width="2822222" height="1567901"/>
   <g>
    <path class="fil1" d="M1017681 992917l-84187 197609 -39897 0 -83005 -197609 55846 0 47551 120136 47994 -120136 55698 0zm72042 197609l-51255 0 0 -197609 51255 0 0 197609zm214645 -98903c0,20590 -6174,39602 -18567,57131 -12396,17526 -28194,29674 -47501,36441 -10219,3553 -20593,5331 -31207,5331l-75746 0 0 -197609 75746 0c18517,0 35651,5184 51452,15504 15503,10025 27404,23456 35701,40245 6764,13872 10122,28194 10122,42957zm-53330 0c0,-13675 -3801,-25626 -11405,-35798 -10173,-13481 -25231,-20245 -45328,-20245l-11703 0 0 112284 11703 0c20194,0 35256,-6764 45328,-20245 7604,-10270 11405,-22267 11405,-35996zm228371 94262c-16789,6667 -32343,9975 -46611,9975 -24889,0 -47159,-7952 -66858,-23901 -25083,-20342 -37627,-46858 -37627,-79596 0,-32785 12544,-59351 37627,-79696 19699,-15949 42117,-23895 67304,-23895 13675,0 29081,3305 46165,9972l0 61427c-4839,-5927 -9727,-10370 -14763,-13334 -9185,-5531 -19013,-8294 -29577,-8294 -13284,0 -24886,3998 -34761,12048 -12446,10173 -18667,24096 -18667,41772 0,17630 6221,31502 18667,41675 9875,8049 21477,12048 34761,12048 10564,0 20392,-2763 29577,-8295 4938,-2863 9824,-7356 14763,-13333l0 61427zm242297 -93522c0,26861 -8937,50417 -26764,70659 -20342,23061 -47896,34616 -82610,34616 -34663,0 -62167,-11555 -82509,-34616 -17827,-20242 -26761,-43798 -26761,-70659 0,-12245 2418,-24788 7260,-37673 4788,-12889 11254,-23949 19354,-33083 20342,-23061 47896,-34616 82656,-34616 34714,0 62268,11555 82610,34616 17827,20245 26764,43848 26764,70756zm-53327 0c0,-13926 -4444,-25971 -13334,-36143 -11408,-12986 -25626,-19455 -42713,-19455 -11800,0 -22464,3309 -32044,9925 -9530,6667 -16344,15504 -20446,26513 -2317,6322 -3452,12691 -3452,19160 0,13381 4443,25331 13330,35899 11013,13085 25184,19602 42612,19602 17382,0 31603,-6466 42713,-19455 8890,-10370 13334,-22368 13334,-36046zm324361 98163l-51255 0 -14566 -113764 -47702 113764 -20342 0 -45525 -113764 -16739 113764 -51255 0 33478 -197609 50957 0 39897 105473 42170 -105473 51255 0 29627 197609zm-1182148 26934l1194145 0 0 13468 -1194145 0 0 -13468z"/>
    <path class="fil2" d="M1399543 195781c51863,0 101164,10931 145759,30577 -6081,-634 -12255,-953 -18533,-953 -27373,0 -48856,4857 -65134,14217 0,36727 7269,69283 21487,98026 24939,-13842 50913,-20763 77946,-20763 36037,0 65131,13503 87295,40161 22518,26688 33616,63067 33616,109126 0,123346 -53692,239741 -161105,349585l0 -28410c0,-27031 -4491,-55780 -13503,-85924 -9009,-30154 -33265,-73460 -72051,-130268 -39505,-56814 -62362,-102553 -69311,-137878l-14190 0c-6579,52311 -27027,102895 -61327,151400 -11072,15227 -26657,39476 -46425,72405 -20085,32211 -36021,55780 -48489,71368l31866 27344 46429 -69966c23879,-36381 43308,-62361 58893,-77950 77950,110164 117423,196088 118490,257760 0,14353 -1242,31446 -3704,50741 -15710,2085 -31728,3176 -48009,3176 -199867,0 -361887,-162027 -361887,-361887 0,-199864 162020,-361887 361887,-361887zm-135695 169026c31000,0 56134,25927 56134,57893 0,31969 -25134,57893 -56134,57893 -31001,0 -56131,-25924 -56131,-57893 0,-31966 25130,-57893 56131,-57893zm443295 2167c34406,55368 54287,120709 54287,190694 0,172438 -120612,316691 -282078,353038 162686,-140368 244189,-288055 244189,-442791 0,-36962 -5460,-70606 -16398,-100941z"/>
    <g style="clip-path:url(#id0)">
     <g>
      <ellipse class="fil0 str1" cx="1255977" cy="422355" rx="199630" ry="196648"/>
      <ellipse class="fil0 str1" cx="1240371" cy="406982" rx="184024" ry="181275"/>
     </g>
    </g>
    <path class="fil0" d="M1399543 195781c51863,0 101164,10931 145759,30577 -6081,-634 -12255,-953 -18533,-953 -27373,0 -48856,4857 -65134,14217 0,36727 7269,69283 21487,98026 24939,-13842 50913,-20763 77946,-20763 36037,0 65131,13503 87295,40161 22518,26688 33616,63067 33616,109126 0,123346 -53692,239741 -161105,349585l0 -28410c0,-27031 -4491,-55780 -13503,-85924 -9009,-30154 -33265,-73460 -72051,-130268 -39505,-56814 -62362,-102553 -69311,-137878l-14190 0c-6579,52311 -27027,102895 -61327,151400 -11072,15227 -26657,39476 -46425,72405 -20085,32211 -36021,55780 -48489,71368l31866 27344 46429 -69966c23879,-36381 43308,-62361 58893,-77950 77950,110164 117423,196088 118490,257760 0,14353 -1242,31446 -3704,50741 -15710,2085 -31728,3176 -48009,3176 -199867,0 -361887,-162027 -361887,-361887 0,-199864 162020,-361887 361887,-361887zm-135695 169026c31000,0 56134,25927 56134,57893 0,31969 -25134,57893 -56134,57893 -31001,0 -56131,-25924 -56131,-57893 0,-31966 25130,-57893 56131,-57893zm443295 2167c34406,55368 54287,120709 54287,190694 0,172438 -120612,316691 -282078,353038 162686,-140368 244189,-288055 244189,-442791 0,-36962 -5460,-70606 -16398,-100941z"/>
    <path class="fil3" d="M864632 1310822c5315,1138 9294,2938 11944,5450 3650,3478 5488,7730 5488,12753 0,3826 -1198,7498 -3616,10994 -2415,3500 -5720,6049 -9931,7655 -4193,1602 -10608,2414 -19248,2414l-36193 0 0 -2088 2860 0c3186,0 5469,-1022 6858,-3051 872,-1314 1295,-4136 1295,-8426l0 -49740c0,-4754 -539,-7752 -1621,-8987 -1471,-1662 -3635,-2493 -6532,-2493l-2860 0 0 -2086 33120 0c6184,0 11132,442 14861,1352 5663,1370 9972,3769 12948,7228 2975,3459 4462,7419 4462,11922 0,3845 -1157,7285 -3497,10339 -2339,3032 -5779,5293 -10338,6764zm-29643 -3152c1392,273 2995,464 4773,599 1796,135 3769,195 5914,195 5506,0 9661,-599 12424,-1778 2762,-1179 4889,-2995 6359,-5450 1449,-2434 2183,-5102 2183,-8000 0,-4484 -1835,-8291 -5488,-11458 -3653,-3151 -8987,-4735 -15983,-4735 -3766,0 -7169,405 -10182,1236l0 29391zm0 36834c4387,1025 8733,1527 13004,1527 6861,0 12098,-1546 15692,-4619 3593,-3073 5390,-6880 5390,-11402 0,-2976 -828,-5855 -2512,-8599 -1662,-2762 -4327,-4929 -7980,-6513 -3650,-1583 -8194,-2377 -13585,-2377 -2339,0 -4327,38 -5989,117 -1662,78 -2998,213 -4020,385l0 31481zm113046 -58649c0,-4601 -734,-7498 -2224,-8715 -1486,-1220 -4500,-1837 -9021,-1837l0 -2086 33158 0 0 2086c-4714,153 -7730,909 -9044,2279 -1314,1355 -1969,4582 -1969,9665l0 48812c0,5083 655,8310 1969,9661 1314,1374 4330,2126 9044,2280l0 2088 -33158 0 0 -2088c4870,-154 7939,-925 9275,-2299 1314,-1392 1970,-4600 1970,-9642l0 -44174 -35479 45798c38,3283 251,5488 656,6607 388,1104 1313,1992 2765,2628 1449,640 4017,1007 7708,1082l0 2088 -33042 0 0 -2088c4713,-154 7730,-906 9044,-2280 1314,-1351 1969,-4578 1969,-9661l0 -48812c0,-5083 -655,-8310 -1969,-9665 -1314,-1370 -4331,-2126 -9044,-2279l0 -2086 33042 0 0 2086c-4791,153 -7824,909 -9160,2279 -1313,1355 -1969,4582 -1969,9665l0 44290 35479 -45682zm37701 -12638l63538 0 0 2086c-4773,153 -7824,909 -9138,2261 -1336,1373 -1991,4581 -1991,9642l0 42591c0,8234 464,13336 1411,15287 947,1950 3979,2916 9138,2916l0 24117 -1969 0c-1123,-5566 -2957,-10066 -5450,-13468 -2512,-3421 -5353,-5682 -8542,-6842 -3189,-1138 -7015,-1719 -11459,-1719l-19558 0c-8560,0 -14838,2318 -18858,6956 -4020,4619 -6416,9645 -7210,15073l-1969 0 0 -24117c6049,-521 10957,-4174 14745,-10938 3788,-6782 6416,-15070 7864,-24926 1468,-9856 2202,-17934 2202,-24253 0,-3769 -464,-6550 -1411,-8328 -947,-1778 -2067,-2898 -3362,-3343 -1295,-464 -3961,-756 -7981,-909l0 -2086zm18552 4290c-947,22377 -2725,38088 -5372,47112 -2628,9025 -6184,16115 -10627,21296l28385 0c5046,0 8078,-446 9063,-1333 1006,-891 1508,-3769 1508,-8639l0 -58436 -22957 0zm71211 -116l0 30377 16927 0c4387,0 7306,-656 8774,-1970 1969,-1740 3054,-4794 3286,-9159l2085 0 0 26783 -2085 0c-524,-3751 -1063,-6165 -1587,-7228 -674,-1314 -1796,-2359 -3342,-3111 -1546,-756 -3923,-1142 -7131,-1142l-16927 0 0 25353c0,3403 153,5469 445,6206 307,734 828,1333 1584,1756 752,445 2201,659 4308,659l13004 0c4331,0 7479,-311 9452,-910 1950,-599 3844,-1797 5641,-3575 2339,-2336 4735,-5873 7190,-10589l2318 0 -6626 19247 -59232 0 0 -2088 2725 0c1818,0 3537,-442 5161,-1314 1217,-599 2048,-1505 2474,-2725 442,-1217 656,-3691 656,-7438l0 -49972c0,-4870 -483,-7865 -1468,-8987 -1373,-1509 -3634,-2261 -6823,-2261l-2725 0 0 -2086 59251 0 812 16927 -2205 0c-793,-4076 -1662,-6880 -2628,-8407 -965,-1527 -2395,-2684 -4270,-3496 -1509,-561 -4174,-850 -7981,-850l-21063 0zm88950 -5914c9953,0 18592,3788 25877,11364 7303,7573 10956,17024 10956,28367 0,11671 -3672,21354 -11035,29062 -7344,7711 -16253,11559 -26704,11559 -10552,0 -19424,-3769 -26611,-11286 -7190,-7517 -10784,-17237 -10784,-29182 0,-12192 4155,-22145 12446,-29856 7206,-6685 15827,-10028 25855,-10028zm-1082 4058c-6839,0 -12349,2552 -16485,7651 -5158,6359 -7748,15654 -7748,27906 0,12543 2668,22204 8021,28968 4114,5140 9527,7711 16272,7711 7206,0 13139,-2822 17836,-8448 4694,-5641 7034,-14512 7034,-26648 0,-13158 -2591,-22976 -7749,-29429 -4136,-5140 -9856,-7711 -17181,-7711zm66341 33393l35595 0 0 -22145c0,-3904 -251,-6476 -734,-7711 -386,-928 -1179,-1740 -2396,-2415 -1624,-909 -3343,-1354 -5161,-1354l-2722 0 0 -2086 32926 0 0 2086 -2722 0c-1819,0 -3538,426 -5162,1295 -1217,599 -2048,1508 -2474,2725 -442,1216 -655,3709 -655,7460l0 49740c0,3885 250,6453 733,7692 386,947 1161,1756 2340,2433 1662,910 3399,1352 5218,1352l2722 0 0 2088 -32926 0 0 -2088 2722 0c3151,0 5431,-925 6879,-2763 947,-1216 1412,-4114 1412,-8714l0 -23421 -35595 0 0 23421c0,3885 251,6453 734,7692 367,947 1160,1756 2377,2433 1624,910 3324,1352 5139,1352l2763 0 0 2088 -32926 0 0 -2088 2722 0c3189,0 5491,-925 6939,-2763 907,-1216 1352,-4114 1352,-8714l0 -49740c0,-3904 -251,-6476 -734,-7711 -385,-928 -1160,-1740 -2339,-2415 -1662,-909 -3399,-1354 -5218,-1354l-2722 0 0 -2086 32926 0 0 2086 -2763 0c-1815,0 -3515,426 -5139,1295 -1179,599 -1991,1508 -2434,2725 -445,1216 -677,3709 -677,7460l0 22145zm112970 15538l-29780 0 -5140 12038c-1276,2976 -1931,5218 -1931,6686 0,1160 561,2204 1680,3092 1101,868 3519,1448 7210,1718l0 2088 -24234 0 0 -2088c3208,-558 5274,-1292 6221,-2201 1932,-1816 4058,-5507 6398,-11054l27033 -63268 1913 0 26727 63945c2144,5140 4098,8464 5854,10010 1759,1527 4196,2377 7344,2568l0 2088 -30301 0 0 -2088c3054,-154 5121,-655 6203,-1524 1085,-872 1605,-1935 1605,-3189 0,-1662 -753,-4290 -2261,-7884l-4541 -10937zm-1740 -4177l-12948 -31013 -13295 31013 26243 0zm89512 -47072l809 16927 -2086 0c-1198,-5506 -3073,-9024 -5585,-10511 -2511,-1489 -6977,-2242 -13393,-2242l-12907 0 0 30377 3052 0c9413,0 16312,599 20737,1796 4405,1179 7999,3459 10784,6843 2762,3361 4152,7419 4152,12154 0,5720 -2105,10725 -6338,15055 -4211,4309 -11499,6472 -21835,6472l-32464 0 0 -2088c4713,-154 7729,-906 9043,-2280 1314,-1351 1969,-4578 1969,-9661l0 -48812c0,-3904 -269,-6532 -831,-7905 -539,-1371 -1429,-2340 -2684,-2898 -1257,-580 -3556,-947 -6921,-1141l0 -2086 54498 0zm-33162 72252c3324,524 5915,794 7749,794 4638,0 8830,-1546 12600,-4638 3747,-3092 5622,-7382 5622,-12869 0,-5664 -1950,-9856 -5873,-12600 -3923,-2725 -8909,-4099 -14958,-4099 -1681,0 -3402,157 -5140,446l0 32966zm94187 -68078l-23769 0 0 21546c0,21760 -1872,35864 -5604,42359 -3747,6475 -8890,9721 -15459,9721 -2800,0 -4967,-697 -6472,-2070 -1509,-1389 -2261,-2995 -2261,-4810 0,-1411 483,-2628 1467,-3654 985,-1022 2186,-1527 3575,-1527 1160,0 2512,580 4020,1722 1700,1254 3227,1875 4600,1875 3284,0 5952,-2725 8037,-8194 2070,-5469 3111,-15807 3111,-31054l0 -16099c0,-5061 -655,-8269 -1988,-9642 -1314,-1352 -4368,-2108 -9141,-2261l0 -2086 61801 0 0 2086c-4717,153 -7730,909 -9047,2279 -1314,1355 -1969,4582 -1969,9665l0 48812c0,5083 655,8310 1969,9661 1317,1374 4330,2126 9047,2280l0 2088 -32929 0 0 -2088c4713,-154 7729,-906 9043,-2280 1314,-1351 1969,-4578 1969,-9661l0 -58668zm63905 35711l-15767 0 0 23421c0,4559 580,7614 1759,9160 1157,1546 3669,2317 7498,2317l1756 0 0 2088 -32926 0 0 -2088 2318 0c2126,0 3885,-386 5296,-1138 1389,-753 2317,-1722 2744,-2939 442,-1197 655,-3672 655,-7400l0 -49740c0,-3653 -232,-6146 -715,-7460 -464,-1333 -1392,-2321 -2781,-2995 -1374,-677 -3305,-1025 -5761,-1025l-1756 0 0 -2086 32926 0 0 2086 -1756 0c-2744,0 -4697,367 -5876,1100 -1158,737 -2010,1625 -2569,2669 -542,1022 -812,3594 -812,7711l0 22145 15767 0c524,-11091 4544,-20098 12041,-27034 7479,-6939 16250,-10417 26300,-10417 9662,0 18204,3728 25642,11170 7441,7438 11151,16968 11151,28598 0,11151 -3556,20697 -10665,28658 -7112,7943 -16156,11926 -27093,11926 -7094,0 -13393,-1662 -18862,-4986 -5469,-3324 -9894,-7943 -13255,-13876 -3343,-5914 -5102,-12540 -5259,-19865zm37278 -37567c-7306,0 -13179,3035 -17623,9103 -4446,6068 -6667,14879 -6667,26454 0,10802 2086,19614 6241,26434 4173,6824 10204,10245 18106,10245 7692,0 13741,-2998 18166,-8987 4424,-5990 6647,-14688 6647,-26109 0,-11574 -2088,-20655 -6240,-27247 -4177,-6588 -10379,-9893 -18630,-9893zm46978 -2318l63537 0 0 2086c-4772,153 -7823,909 -9137,2261 -1336,1373 -1991,4581 -1991,9642l0 42591c0,8234 464,13336 1411,15287 947,1950 3979,2916 9137,2916l0 24117 -1969 0c-1123,-5566 -2957,-10066 -5450,-13468 -2512,-3421 -5353,-5682 -8542,-6842 -3189,-1138 -7015,-1719 -11458,-1719l-19558 0c-8561,0 -14839,2318 -18859,6956 -4020,4619 -6416,9645 -7209,15073l-1969 0 0 -24117c6049,-521 10956,-4174 14744,-10938 3788,-6782 6416,-15070 7865,-24926 1467,-9856 2201,-17934 2201,-24253 0,-3769 -464,-6550 -1411,-8328 -947,-1778 -2066,-2898 -3362,-3343 -1295,-464 -3960,-756 -7980,-909l0 -2086zm18551 4290c-947,22377 -2725,38088 -5371,47112 -2628,9025 -6184,16115 -10628,21296l28386 0c5045,0 8078,-446 9062,-1333 1007,-891 1508,-3769 1508,-8639l0 -58436 -22957 0zm71211 -116l0 30377 16927 0c4387,0 7307,-656 8774,-1970 1970,-1740 3055,-4794 3287,-9159l2085 0 0 26783 -2085 0c-524,-3751 -1063,-6165 -1587,-7228 -674,-1314 -1797,-2359 -3343,-3111 -1546,-756 -3923,-1142 -7131,-1142l-16927 0 0 25353c0,3403 154,5469 445,6206 308,734 828,1333 1584,1756 753,445 2201,659 4309,659l13004 0c4330,0 7479,-311 9451,-910 1951,-599 3845,-1797 5641,-3575 2340,-2336 4736,-5873 7191,-10589l2317 0 -6626 19247 -59232 0 0 -2088 2725 0c1819,0 3537,-442 5162,-1314 1216,-599 2047,-1505 2474,-2725 442,-1217 655,-3691 655,-7438l0 -49972c0,-4870 -483,-7865 -1467,-8987 -1374,-1509 -3635,-2261 -6824,-2261l-2725 0 0 -2086 59251 0 812 16927 -2204 0c-794,-4076 -1662,-6880 -2628,-8407 -966,-1527 -2396,-2684 -4271,-3496 -1508,-561 -4174,-850 -7981,-850l-21063 0zm70477 31537l35595 0 0 -22145c0,-3904 -251,-6476 -734,-7711 -386,-928 -1179,-1740 -2396,-2415 -1624,-909 -3342,-1354 -5161,-1354l-2722 0 0 -2086 32926 0 0 2086 -2722 0c-1819,0 -3537,426 -5162,1295 -1216,599 -2047,1508 -2474,2725 -442,1216 -655,3709 -655,7460l0 49740c0,3885 251,6453 734,7692 385,947 1160,1756 2339,2433 1662,910 3399,1352 5218,1352l2722 0 0 2088 -32926 0 0 -2088 2722 0c3151,0 5431,-925 6880,-2763 947,-1216 1411,-4114 1411,-8714l0 -23421 -35595 0 0 23421c0,3885 251,6453 734,7692 367,947 1160,1756 2377,2433 1624,910 3324,1352 5140,1352l2762 0 0 2088 -32926 0 0 -2088 2722 0c3189,0 5491,-925 6940,-2763 906,-1216 1351,-4114 1351,-8714l0 -49740c0,-3904 -251,-6476 -733,-7711 -386,-928 -1161,-1740 -2340,-2415 -1662,-909 -3399,-1354 -5218,-1354l-2722 0 0 -2086 32926 0 0 2086 -2762 0c-1816,0 -3516,426 -5140,1295 -1179,599 -1991,1508 -2433,2725 -446,1216 -678,3709 -678,7460l0 22145zm119443 -23073c0,-4601 -734,-7498 -2223,-8715 -1487,-1220 -4500,-1837 -9022,-1837l0 -2086 33158 0 0 2086c-4713,153 -7730,909 -9044,2279 -1313,1355 -1969,4582 -1969,9665l0 48812c0,5083 656,8310 1969,9661 1314,1374 4331,2126 9044,2280l0 2088 -33158 0 0 -2088c4870,-154 7940,-925 9276,-2299 1314,-1392 1969,-4600 1969,-9642l0 -44174 -35478 45798c37,3283 250,5488 655,6607 389,1104 1314,1992 2766,2628 1449,640 4017,1007 7708,1082l0 2088 -33042 0 0 -2088c4713,-154 7729,-906 9043,-2280 1314,-1351 1970,-4578 1970,-9661l0 -48812c0,-5083 -656,-8310 -1970,-9665 -1314,-1370 -4330,-2126 -9043,-2279l0 -2086 33042 0 0 2086c-4792,153 -7824,909 -9160,2279 -1314,1355 -1969,4582 -1969,9665l0 44290 35478 -45682zm48370 -8464l0 30377 16927 0c4387,0 7306,-656 8774,-1970 1969,-1740 3054,-4794 3286,-9159l2085 0 0 26783 -2085 0c-523,-3751 -1063,-6165 -1587,-7228 -674,-1314 -1796,-2359 -3342,-3111 -1546,-756 -3923,-1142 -7131,-1142l-16927 0 0 25353c0,3403 153,5469 445,6206 307,734 828,1333 1584,1756 752,445 2201,659 4308,659l13004 0c4331,0 7479,-311 9452,-910 1950,-599 3844,-1797 5641,-3575 2339,-2336 4735,-5873 7190,-10589l2318 0 -6626 19247 -59232 0 0 -2088 2725 0c1818,0 3537,-442 5161,-1314 1217,-599 2048,-1505 2474,-2725 443,-1217 656,-3691 656,-7438l0 -49972c0,-4870 -483,-7865 -1468,-8987 -1373,-1509 -3634,-2261 -6823,-2261l-2725 0 0 -2086 59251 0 812 16927 -2205 0c-793,-4076 -1662,-6880 -2627,-8407 -966,-1527 -2396,-2684 -4271,-3496 -1509,-561 -4174,-850 -7981,-850l-21063 0z"/>
   </g>
  </g>
 </g>
</svg>
