<?xml version="1.0" encoding="UTF-8"?>
<!DOCTYPE svg PUBLIC "-//W3C//DTD SVG 1.1//EN" "http://www.w3.org/Graphics/SVG/1.1/DTD/svg11.dtd">
<!-- Creator: CorelDRAW X8 -->
<svg xmlns="http://www.w3.org/2000/svg" xml:space="preserve" width="2.82222E+06px" height="1.56986E+06px" version="1.1" style="shape-rendering:geometricPrecision; text-rendering:geometricPrecision; image-rendering:optimizeQuality; fill-rule:evenodd; clip-rule:evenodd"
viewBox="0 0 2822222 1567901"
 xmlns:xlink="http://www.w3.org/1999/xlink">
 <defs>
  <style type="text/css">
   <![CDATA[
    .str1 {stroke:#00A0E3;stroke-width:6271.6;stroke-opacity:0.501961}
    .str0 {stroke:#2A2346;stroke-width:6271.6;stroke-opacity:0.501961}
    .str2 {stroke:#FEFEFE;stroke-width:6271.6}
    .str3 {stroke:#9D9E9E;stroke-width:6271.6}
    .fil1 {fill:none}
    .fil0 {fill:none}
    .fil3 {fill:#2A2346}
    .fil4 {fill:#5B5B5B;fill-rule:nonzero}
    .fil2 {fill:#2A2346;fill-rule:nonzero}
    .fil5 {fill:#2A2346;fill-rule:nonzero}
   ]]>
  </style>
    <clipPath id="id0">
     <path d="M0 0l2822222 0 0 1567901 -2822222 0 0 -1567901z"/>
    </clipPath>
    <clipPath id="id1">
     <path d="M451330 157104c25936,0 50590,5469 72888,15290 -3038,-317 -6127,-477 -9266,-477 -13688,0 -24431,2430 -32572,7112 0,18363 3635,34645 10744,49019 12471,-6924 25459,-10383 38978,-10383 18021,0 32571,6752 43653,20082 11261,13346 16811,31537 16811,54569 0,61682 -26848,119888 -80562,174815l0 -14205c0,-13519 -2245,-27896 -6751,-42970 -4506,-15077 -16635,-36733 -36030,-65140 -19756,-28414 -31186,-51283 -34660,-68950l-7097 0c-3289,26159 -13515,51455 -30668,75711 -5538,7613 -13330,19743 -23214,36206 -10044,16108 -18015,27896 -24249,35688l15936 13676 23217 -34987c11941,-18194 21656,-31185 29449,-38981 38981,55090 58721,98057 59254,128897 0,7175 -621,15726 -1854,25372 -7855,1044 -15867,1590 -24007,1590 -99945,0 -180967,-81026 -180967,-180967 0,-99944 81022,-180967 180967,-180967zm-67856 84525c15504,0 28072,12964 28072,28950 0,15986 -12568,28950 -28072,28950 -15500,0 -28068,-12964 -28068,-28950 0,-15986 12568,-28950 28068,-28950zm221676 1082c17206,27689 27147,60361 27147,95360 0,86228 -60314,158364 -141058,176542 81355,-70195 122111,-144046 122111,-221425 0,-18482 -2731,-35306 -8200,-50477z"/>
    </clipPath>
 </defs>
 <g id="Слой_x0020_1">
  <metadata id="CorelCorpID_0Corel-Layer"/>
  <g id="_704278156144">
   <g>
   </g>
   <g style="clip-path:url(#id0)">
    <g id="_704278171152">
     <path class="fil0 str0" d="M2050699 -1045398c656458,0 1188626,419206 1188626,936322 0,517119 -532168,936323 -1188626,936323 -656459,0 -1188626,-419204 -1188626,-936323 0,-517116 532167,-936322 1188626,-936322z"/>
     <path class="fil0 str1" d="M2183092 -889408c656462,0 1188626,419207 1188626,936326 0,517116 -532164,936322 -1188626,936322 -656458,0 -1188626,-419206 -1188626,-936322 0,-517119 532168,-936326 1188626,-936326z"/>
     <g>
      <path class="fil0 str0" d="M583764 768839c521349,0 943986,272160 943986,607888 0,335725 -422637,607888 -943986,607888 -521349,0 -943986,-272163 -943986,-607888 0,-335728 422637,-607888 943986,-607888z"/>
      <path class="fil0 str1" d="M873192 954482c521350,0 943987,272159 943987,607888 0,335725 -422637,607888 -943987,607888 -521349,0 -943986,-272163 -943986,-607888 0,-335729 422637,-607888 943986,-607888z"/>
     </g>
    </g>
   </g>
   <polygon class="fil1" points="0,0 2822222,0 2822222,1567901 0,1567901 "/>
   <path class="fil2" d="M260375 555724l-42098 98815 -19950 0 -41509 -98815 27928 0 23775 60075 24002 -60075 27852 0zm36027 98815l-25632 0 0 -98815 25632 0 0 98815zm107336 -49458c0,10298 -3089,19803 -9285,28571 -6200,8764 -14099,14838 -23754,18222 -5111,1778 -10298,2665 -15607,2665l-37877 0 0 -98815 37877 0c9260,0 17830,2590 25729,7751 7755,5015 13707,11728 17856,20126 3380,6936 5061,14099 5061,21480zm-26670 0c0,-6839 -1901,-12813 -5704,-17899 -5087,-6742 -12616,-10125 -22666,-10125l-5851 0 0 56149 5851 0c10101,0 17630,-3383 22666,-10125 3803,-5133 5704,-11135 5704,-18000zm114199 47138c-8394,3333 -16171,4989 -23308,4989 -12446,0 -23581,-3976 -33431,-11954 -12543,-10172 -18815,-23431 -18815,-39803 0,-16394 6272,-29677 18815,-39853 9850,-7974 21060,-11950 33654,-11950 6839,0 14543,1656 23085,4989l0 30715c-2417,-2960 -4863,-5183 -7381,-6667 -4591,-2765 -9508,-4145 -14792,-4145 -6642,0 -12443,1997 -17382,6024 -6221,5086 -9332,12048 -9332,20887 0,8818 3111,15755 9332,20841 4939,4026 10740,6024 17382,6024 5284,0 10201,-1380 14792,-4146 2468,-1433 4913,-3681 7381,-6666l0 30715zm121165 -46768c0,13434 -4469,25212 -13384,35335 -10173,11533 -23951,17309 -41308,17309 -17335,0 -31088,-5776 -41261,-17309 -8915,-10123 -13383,-21901 -13383,-35335 0,-6124 1210,-12395 3631,-18840 2396,-6444 5629,-11975 9677,-16541 10172,-11533 23951,-17310 41336,-17310 17357,0 31135,5777 41308,17310 8915,10122 13384,21926 13384,35381zm-26667 0c0,-6961 -2224,-12985 -6667,-18074 -5704,-6492 -12816,-9728 -21358,-9728 -5901,0 -11235,1653 -16027,4964 -4763,3334 -8172,7752 -10223,13258 -1160,3161 -1728,6347 -1728,9580 0,6692 2224,12669 6667,17953 5507,6544 12594,9802 21311,9802 8689,0 15801,-3236 21358,-9730 4443,-5184 6667,-11185 6667,-18025zm162202 49088l-25632 0 -7284 -56890 -23854 56890 -10173 0 -22766 -56890 -8369 56890 -25629 0 16742 -98815 25478 0 19953 52741 21086 -52741 25632 0 14816 98815zm-591149 13468l597148 0 0 6736 -597148 0 0 -6736z"/>
   <path class="fil3" d="M451330 157104c25936,0 50590,5469 72888,15290 -3038,-317 -6127,-477 -9266,-477 -13688,0 -24431,2430 -32572,7112 0,18363 3635,34645 10744,49019 12471,-6924 25459,-10383 38978,-10383 18021,0 32571,6752 43653,20082 11261,13346 16811,31537 16811,54569 0,61682 -26848,119888 -80562,174815l0 -14205c0,-13519 -2245,-27896 -6751,-42970 -4506,-15077 -16635,-36733 -36030,-65140 -19756,-28414 -31186,-51283 -34660,-68950l-7097 0c-3289,26159 -13515,51455 -30668,75711 -5538,7613 -13330,19743 -23214,36206 -10044,16108 -18015,27896 -24249,35688l15936 13676 23217 -34987c11941,-18194 21656,-31185 29449,-38981 38981,55090 58721,98057 59254,128897 0,7175 -621,15726 -1854,25372 -7855,1044 -15867,1590 -24007,1590 -99945,0 -180967,-81026 -180967,-180967 0,-99944 81022,-180967 180967,-180967zm-67856 84525c15504,0 28072,12964 28072,28950 0,15986 -12568,28950 -28072,28950 -15500,0 -28068,-12964 -28068,-28950 0,-15986 12568,-28950 28068,-28950zm221676 1082c17206,27689 27147,60361 27147,95360 0,86228 -60314,158364 -141058,176542 81355,-70195 122111,-144046 122111,-221425 0,-18482 -2731,-35306 -8200,-50477z"/>
   <g style="clip-path:url(#id1)">
    <g id="_704278167024">
     <ellipse class="fil1 str2" cx="379539" cy="270406" rx="99828" ry="98336"/>
     <ellipse class="fil1 str2" cx="371734" cy="262718" rx="92023" ry="90649"/>
    </g>
   </g>
   <path class="fil1" d="M451330 157104c25936,0 50590,5469 72888,15290 -3038,-317 -6127,-477 -9266,-477 -13688,0 -24431,2430 -32572,7112 0,18363 3635,34645 10744,49019 12471,-6924 25459,-10383 38978,-10383 18021,0 32571,6752 43653,20082 11261,13346 16811,31537 16811,54569 0,61682 -26848,119888 -80562,174815l0 -14205c0,-13519 -2245,-27896 -6751,-42970 -4506,-15077 -16635,-36733 -36030,-65140 -19756,-28414 -31186,-51283 -34660,-68950l-7097 0c-3289,26159 -13515,51455 -30668,75711 -5538,7613 -13330,19743 -23214,36206 -10044,16108 -18015,27896 -24249,35688l15936 13676 23217 -34987c11941,-18194 21656,-31185 29449,-38981 38981,55090 58721,98057 59254,128897 0,7175 -621,15726 -1854,25372 -7855,1044 -15867,1590 -24007,1590 -99945,0 -180967,-81026 -180967,-180967 0,-99944 81022,-180967 180967,-180967zm-67856 84525c15504,0 28072,12964 28072,28950 0,15986 -12568,28950 -28072,28950 -15500,0 -28068,-12964 -28068,-28950 0,-15986 12568,-28950 28068,-28950zm221676 1082c17206,27689 27147,60361 27147,95360 0,86228 -60314,158364 -141058,176542 81355,-70195 122111,-144046 122111,-221425 0,-18482 -2731,-35306 -8200,-50477z"/>
   <g id="_704278164144">
    <path class="fil2" d="M1947007 1172103l23400 0 0 -23295 6271 0 0 23295 23396 0 0 6372 -23396 0 0 23099 -6271 0 0 -23099 -23400 0 0 -6372zm57928 37439l0 -1396c5378,-1229 9940,-3054 13675,-5459 3732,-2405 6701,-5375 8893,-8912 2173,-3550 3701,-7614 4579,-12230 -2007,1013 -3716,1709 -5128,2108 -1407,398 -2903,598 -4446,598 -4995,0 -9160,-1793 -12477,-5377 -3337,-3600 -4996,-8511 -4996,-14751 0,-4331 897,-8298 2688,-11913 1793,-3603 4365,-6391 7682,-8382 3337,-1991 6789,-2985 10389,-2985 3832,0 7482,1094 10903,3302 3434,2207 6156,5409 8197,9592 2039,4180 3052,8943 3052,14302 0,6937 -1659,13591 -4961,19947 -3318,6353 -8247,11465 -14801,15300 -6554,3847 -14306,5923 -23249,6256zm27877 -32026c267,-3635 398,-6821 398,-9593 0,-5907 -680,-11398 -2022,-16494 -781,-2822 -1926,-4895 -3437,-6240 -797,-712 -1841,-1060 -3136,-1060 -1608,0 -2853,696 -3766,2088 -1245,1910 -1875,5560 -1875,10954 0,8993 1063,15183 3202,18586 1395,2204 3270,3317 5641,3317 1264,0 2922,-514 4995,-1558zm21904 32026l0 -1396c5378,-1229 9940,-3054 13675,-5459 3732,-2405 6701,-5375 8893,-8912 2173,-3550 3700,-7614 4578,-12230 -2007,1013 -3716,1709 -5127,2108 -1408,398 -2903,598 -4446,598 -4996,0 -9160,-1793 -12478,-5377 -3336,-3600 -4995,-8511 -4995,-14751 0,-4331 897,-8298 2687,-11913 1794,-3603 4366,-6391 7683,-8382 3337,-1991 6789,-2985 10389,-2985 3832,0 7482,1094 10903,3302 3434,2207 6156,5409 8197,9592 2039,4180 3051,8943 3051,14302 0,6937 -1658,13591 -4960,19947 -3318,6353 -8248,11465 -14801,15300 -6554,3847 -14306,5923 -23249,6256zm27877 -32026c267,-3635 398,-6821 398,-9593 0,-5907 -680,-11398 -2022,-16494 -781,-2822 -1926,-4895 -3437,-6240 -797,-712 -1841,-1060 -3136,-1060 -1609,0 -2854,696 -3766,2088 -1245,1910 -1875,5560 -1875,10954 0,8993 1063,15183 3201,18586 1396,2204 3271,3317 5642,3317 1263,0 2922,-514 4995,-1558zm52719 -6573c4647,3402 7880,6573 9690,9508 1809,2922 2706,6290 2706,10072 0,5328 -2010,9825 -6008,13490 -3998,3685 -9442,5529 -16328,5529 -6520,0 -11550,-1612 -15118,-4829 -3565,-3221 -5359,-7137 -5359,-11782 0,-3552 1028,-6654 3089,-9310 2057,-2672 5475,-5095 10269,-7319 -5227,-3932 -8579,-7168 -10056,-9689 -1477,-2522 -2205,-5460 -2205,-8796 0,-4412 1872,-8295 5623,-11647 3735,-3352 8877,-5030 15384,-5030 6306,0 11132,1477 14535,4447 3386,2973 5080,6523 5080,10671 0,3120 -916,5858 -2757,8247 -1825,2374 -4678,4532 -8545,6438zm-3735 -2455c1214,-1609 2108,-3434 2707,-5425 580,-2010 878,-4218 878,-6607 0,-4215 -913,-7432 -2722,-9655 -1377,-1709 -3252,-2575 -5657,-2575 -2173,0 -4033,781 -5560,2343 -1527,1574 -2289,3515 -2289,5838 0,2359 862,4798 2571,7335 1709,2540 5061,5444 10072,8746zm-9639 10122c-1013,913 -1728,1741 -2157,2490 -646,1145 -1230,2803 -1760,4977 -514,2191 -780,4465 -780,6836 0,3070 382,5641 1163,7701 778,2073 1891,3566 3318,4478 1442,913 2919,1361 4446,1361 2358,0 4350,-878 5974,-2622 1609,-1740 2424,-4129 2424,-7168 50,-6337 -4149,-12361 -12628,-18053zm32339 30932l0 -1396c5378,-1229 9941,-3054 13676,-5459 3731,-2405 6701,-5375 8893,-8912 2173,-3550 3700,-7614 4578,-12230 -2007,1013 -3716,1709 -5127,2108 -1408,398 -2904,598 -4446,598 -4996,0 -9160,-1793 -12478,-5377 -3336,-3600 -4995,-8511 -4995,-14751 0,-4331 897,-8298 2687,-11913 1794,-3603 4365,-6391 7683,-8382 3336,-1991 6789,-2985 10389,-2985 3832,0 7482,1094 10903,3302 3434,2207 6156,5409 8197,9592 2038,4180 3051,8943 3051,14302 0,6937 -1659,13591 -4961,19947 -3317,6353 -8247,11465 -14801,15300 -6554,3847 -14305,5923 -23249,6256zm27878 -32026c266,-3635 398,-6821 398,-9593 0,-5907 -680,-11398 -2023,-16494 -780,-2822 -1925,-4895 -3436,-6240 -797,-712 -1841,-1060 -3136,-1060 -1609,0 -2854,696 -3766,2088 -1245,1910 -1876,5560 -1876,10954 0,8993 1064,15183 3202,18586 1396,2204 3271,3317 5641,3317 1264,0 2923,-514 4996,-1558zm64914 -2324c0,6588 -928,12725 -2769,18436 -1097,3499 -2590,6371 -4450,8610 -1856,2243 -3963,4017 -6337,5328 -2355,1311 -4945,1976 -7717,1976 -3186,0 -6040,-816 -8611,-2440 -2556,-1612 -4829,-3935 -6805,-6955 -1408,-2205 -2672,-5143 -3731,-8809 -1396,-4964 -2092,-10091 -2092,-15368 0,-7169 1013,-13754 3020,-19746 1643,-4977 4148,-8777 7516,-11415 3368,-2640 6937,-3966 10703,-3966 3816,0 7385,1310 10702,3916 3321,2606 5761,6121 7319,10536 2173,6056 3252,12694 3252,19897zm-14933 -100c0,-11534 -66,-18254 -200,-20179 -314,-4497 -1095,-7548 -2324,-9125 -812,-1044 -2123,-1562 -3948,-1562 -1392,0 -2490,383 -3302,1163 -1210,1145 -2007,3136 -2440,6006 -414,2872 -630,12878 -630,30019 0,9325 332,15581 978,18752 483,2304 1180,3847 2092,4628 897,781 2107,1160 3600,1160 1612,0 2838,-514 3650,-1558 1361,-1809 2142,-4613 2324,-8398l200 -20906zm46595 34450l0 -1396c5378,-1229 9941,-3054 13675,-5459 3732,-2405 6702,-5375 8894,-8912 2173,-3550 3700,-7614 4578,-12230 -2007,1013 -3716,1709 -5127,2108 -1408,398 -2904,598 -4447,598 -4995,0 -9159,-1793 -12477,-5377 -3337,-3600 -4995,-8511 -4995,-14751 0,-4331 896,-8298 2687,-11913 1794,-3603 4365,-6391 7683,-8382 3336,-1991 6789,-2985 10389,-2985 3832,0 7482,1094 10903,3302 3433,2207 6155,5409 8197,9592 2038,4180 3051,8943 3051,14302 0,6937 -1659,13591 -4961,19947 -3318,6353 -8247,11465 -14801,15300 -6554,3847 -14305,5923 -23249,6256zm27877 -32026c267,-3635 399,-6821 399,-9593 0,-5907 -681,-11398 -2023,-16494 -781,-2822 -1925,-4895 -3437,-6240 -796,-712 -1840,-1060 -3135,-1060 -1609,0 -2854,696 -3767,2088 -1245,1910 -1875,5560 -1875,10954 0,8993 1063,15183 3202,18586 1395,2204 3270,3317 5641,3317 1264,0 2923,-514 4995,-1558zm21308 5839l31211 -42512 5927 0 0 42512 6070 0 0 10056 -6070 0 0 14735 -13343 0 0 -14735 -23795 0 0 -10056zm4547 0l19248 0 0 -26219 -19248 26219zm57479 -8263l0 -1694c3701,-1059 6256,-2057 7683,-2985 1427,-931 2672,-2339 3700,-4233 1045,-1891 1562,-3816 1562,-5757 0,-2688 -981,-4996 -2954,-6937 -1960,-1925 -4415,-2888 -7335,-2888 -4565,0 -8429,2408 -11615,7203l-1793 -630c2339,-5425 5328,-9508 8978,-12230 3650,-2737 7714,-4098 12195,-4098 4562,0 8347,1392 11317,4180 2969,2787 4446,6058 4446,9793 0,2421 -680,4779 -2057,7018 -1361,2257 -3518,4249 -6453,5973 3766,1841 6635,4115 8626,6821 1976,2703 2973,6105 2973,10188 0,6852 -2490,12694 -7451,17507 -4979,4810 -11649,7219 -19997,7219 -5575,0 -9639,-932 -12195,-2772 -1844,-1295 -2772,-2954 -2772,-4996 0,-1477 530,-2753 1609,-3800 1063,-1044 2292,-1578 3685,-1578 1078,0 2075,236 3019,681 515,251 2358,1678 5526,4233 3154,2572 6124,3848 8877,3848 2390,0 4447,-944 6174,-2835 1709,-1894 2572,-4299 2572,-7219 0,-4430 -1559,-8529 -4663,-12264 -3120,-3731 -7667,-6321 -13657,-7748zm77612 34450l17921 -54563 -13657 0c-5343,0 -9360,699 -12048,2091 -1875,963 -3418,2788 -4662,5475l-1841 0 4760 -20407 39310 0 -22135 67404 -7648 0zm49780 0l17922 -54563 -13657 0c-5343,0 -9360,699 -12048,2091 -1875,963 -3418,2788 -4663,5475l-1840 0 4760 -20407 39310 0 -22135 67404 -7649 0zm60086 0l0 -1396c5377,-1229 9940,-3054 13675,-5459 3731,-2405 6701,-5375 8893,-8912 2173,-3550 3700,-7614 4578,-12230 -2007,1013 -3716,1709 -5127,2108 -1408,398 -2904,598 -4446,598 -4996,0 -9160,-1793 -12478,-5377 -3336,-3600 -4995,-8511 -4995,-14751 0,-4331 897,-8298 2687,-11913 1794,-3603 4365,-6391 7683,-8382 3336,-1991 6789,-2985 10389,-2985 3832,0 7482,1094 10903,3302 3434,2207 6156,5409 8197,9592 2038,4180 3051,8943 3051,14302 0,6937 -1659,13591 -4961,19947 -3317,6353 -8247,11465 -14801,15300 -6553,3847 -14305,5923 -23248,6256zm27877 -32026c266,-3635 398,-6821 398,-9593 0,-5907 -680,-11398 -2023,-16494 -780,-2822 -1925,-4895 -3436,-6240 -797,-712 -1841,-1060 -3136,-1060 -1609,0 -2854,696 -3766,2088 -1245,1910 -1875,5560 -1875,10954 0,8993 1063,15183 3201,18586 1396,2204 3271,3317 5641,3317 1264,0 2923,-514 4996,-1558zm51276 -36673l0 53960c0,4083 182,6689 530,7802 364,1126 1110,2057 2258,2769 1126,715 2951,1079 5456,1079l1512 0 0 1693 -34748 0 0 -1693 1759 0c2823,0 4829,-332 6024,-978 1211,-646 2007,-1543 2440,-2688 414,-1144 630,-3800 630,-7984l0 -34249c0,-3067 -150,-4992 -433,-5773 -298,-762 -843,-1411 -1640,-1941 -796,-549 -1709,-812 -2756,-812 -1659,0 -3666,514 -6040,1558l-878 -1693 24275 -11050 1611 0z"/>
    <path class="fil4" d="M1799323 1142138l700 15512 -1844 0c-364,-2718 -847,-4678 -1461,-5838 -1010,-1876 -2340,-3271 -4014,-4149 -1678,-897 -3867,-1345 -6589,-1345l-9291 0 0 50379c0,4064 430,6604 1311,7617 1226,1361 3120,2039 5676,2039l2273 0 0 1793 -28078 0 0 -1793 2374 0c2819,0 4810,-844 6005,-2537 715,-1048 1079,-3418 1079,-7119l0 -50379 -7915 0c-3086,0 -5278,232 -6570,680 -1693,615 -3120,1794 -4330,3553 -1195,1740 -1910,4114 -2142,7099l-1841 0 697 -15512 53960 0zm9925 38231c-34,6589 1574,11747 4811,15497 3236,3735 7052,5610 11433,5610 2903,0 5443,-796 7601,-2389 2157,-1577 3964,-4349 5425,-8266l1492 981c-680,4478 -2652,8546 -5923,12180 -3268,3634 -7366,5459 -12280,5459 -5343,0 -9922,-2076 -13722,-6240 -3801,-4164 -5707,-9755 -5707,-16776 0,-7598 1956,-13541 5857,-17787 3898,-4264 8793,-6390 14685,-6390 4977,0 9075,1643 12280,4929 3202,3286 4810,7683 4810,13192l-30762 0zm0 -2787l20609 0c-166,-2854 -499,-4864 -1013,-6024 -812,-1810 -2026,-3236 -3634,-4265 -1593,-1044 -3268,-1562 -5027,-1562 -2691,0 -5096,1048 -7219,3139 -2123,2089 -3352,4993 -3716,8712zm41499 -14039l39728 0 0 1790c-2208,0 -3685,217 -4415,665 -731,433 -1295,978 -1725,1643 -417,646 -630,2772 -630,6356l0 23695c0,3436 182,5493 530,6155 363,665 928,1245 1693,1759 762,499 2274,747 4547,747l0 1793 -23098 0 0 -1793c2486,0 4214,-132 5177,-380 959,-266 1709,-897 2254,-1875 549,-997 831,-3136 831,-6406l0 -30963 -14835 0 0 18799c0,7102 -317,12098 -947,14970 -630,2869 -1891,4992 -3750,6372 -1857,1377 -3999,2073 -6404,2073 -4148,0 -6221,-1725 -6221,-5162 0,-1176 329,-2123 994,-2869 665,-746 1543,-1129 2606,-1129 1144,0 2189,480 3170,1427 1276,1245 2223,1859 2869,1859 1477,0 2540,-1229 3202,-3684 665,-2471 997,-6770 997,-12926l0 -9875c0,-5061 -367,-8146 -1079,-9260 -715,-1094 -2540,-1756 -5494,-1991l0 -1790zm54262 35146c1509,0 2788,530 3832,1574 1029,1047 1543,2308 1543,3800 0,1477 -530,2757 -1574,3801 -1047,1044 -2308,1577 -3801,1577 -1477,0 -2756,-533 -3800,-1577 -1044,-1044 -1577,-2324 -1577,-3801 0,-1508 533,-2787 1577,-3831 1044,-1029 2323,-1543 3800,-1543zm26485 -36441c1493,0 2754,533 3801,1577 1044,1044 1574,2305 1574,3800 0,1477 -530,2754 -1574,3801 -1047,1044 -2308,1574 -3801,1574 -1477,0 -2756,-530 -3800,-1574 -1044,-1047 -1578,-2324 -1578,-3801 0,-1495 534,-2756 1578,-3800 1044,-1044 2323,-1577 3800,-1577zm-116 36441c1509,0 2788,530 3832,1593 1045,1060 1562,2323 1562,3800 0,1493 -533,2754 -1593,3798 -1063,1047 -2324,1561 -3801,1561 -1495,0 -2756,-514 -3800,-1561 -1044,-1044 -1559,-2305 -1559,-3798 0,-1477 515,-2740 1559,-3800 1044,-1063 2305,-1593 3800,-1593zm-252902 41863l0 26083 14534 0c3766,0 6275,-564 7536,-1693 1690,-1493 2621,-4114 2819,-7865l1793 0 0 22998 -1793 0c-449,-3217 -913,-5293 -1361,-6205 -580,-1126 -1543,-2023 -2869,-2672 -1327,-646 -3368,-978 -6125,-978l-14534 0 0 21771c0,2920 132,4695 379,5328 267,630 715,1145 1361,1508 649,383 1894,565 3701,565l11169 0c3716,0 6422,-267 8113,-781 1677,-514 3302,-1543 4848,-3070 2006,-2007 4064,-5042 6171,-9094l1991 0 -5691 16529 -50860 0 0 -1794 2339 0c1562,0 3039,-379 4431,-1125 1044,-515 1759,-1295 2123,-2340 383,-1047 565,-3170 565,-6390l0 -42911c0,-4183 -414,-6754 -1261,-7717 -1179,-1292 -3120,-1941 -5858,-1941l-2339 0 0 -1791 50875 0 699 14535 -1894 0c-680,-3500 -1426,-5908 -2254,-7219 -831,-1310 -2060,-2305 -3669,-3001 -1295,-483 -3584,-730 -6852,-730l-18087 0zm44089 36337l25190 0 0 7369 -25190 0 0 -7369zm45501 -10285c3217,-3255 5127,-5127 5707,-5626 1442,-1229 3004,-2192 4679,-2872 1677,-681 3336,-1029 4979,-1029 2788,0 5162,816 7169,2440 1991,1627 3333,3982 3998,7087 3352,-3917 6174,-6472 8479,-7702 2308,-1210 4679,-1825 7118,-1825 2358,0 4466,615 6306,1825 1825,1214 3287,3205 4350,5974 712,1875 1078,4829 1078,8862l0 19182c0,2772 198,4678 612,5710 317,696 912,1311 1759,1806 862,499 2258,746 4199,746l0 1794 -21803 0 0 -1794 928 0c1891,0 3387,-363 4446,-1110 747,-514 1280,-1345 1593,-2474 135,-545 201,-2107 201,-4678l0 -19166c0,-3635 -433,-6187 -1311,-7683 -1279,-2073 -3302,-3120 -6108,-3120 -1709,0 -3450,432 -5193,1295 -1725,846 -3832,2455 -6306,4779l-97 549 197 2091 0 21255c0,3019 166,4913 499,5660 348,730 978,1361 1906,1856 932,499 2525,746 4764,746l0 1794 -22403 0 0 -1794c2440,0 4118,-279 5030,-862 913,-580 1543,-1458 1891,-2621 166,-546 248,-2139 248,-4779l0 -19166c0,-3635 -530,-6256 -1593,-7865 -1427,-2092 -3402,-3136 -5955,-3136 -1743,0 -3468,480 -5177,1427 -2672,1427 -4748,3054 -6190,4845l0 23895c0,2903 197,4779 596,5660 398,862 997,1508 1793,1956 778,433 2371,646 4779,646l0 1794 -22004 0 0 -1794c2042,0 3468,-213 4281,-646 815,-448 1426,-1128 1859,-2091 414,-944 630,-2788 630,-5525l0 -17025c0,-4879 -150,-8030 -432,-9457 -232,-1079 -580,-1810 -1079,-2208 -480,-414 -1145,-614 -1972,-614 -913,0 -1992,250 -3252,730l-731 -1794 13440 -5475 2092 0 0 9527zm89289 29900c-4563,3534 -7435,5594 -8611,6140 -1744,812 -3603,1229 -5576,1229 -3089,0 -5625,-1063 -7617,-3170 -1991,-2108 -2988,-4880 -2988,-8313 0,-2173 483,-4068 1461,-5642 1327,-2207 3635,-4283 6921,-6240 3302,-1941 8761,-4315 16410,-7103l0 -1740c0,-4431 -697,-7469 -2108,-9128 -1411,-1643 -3452,-2471 -6140,-2471 -2025,0 -3650,545 -4844,1659 -1230,1094 -1841,2355 -1841,3781l97 2823c0,1492 -379,2656 -1144,3468 -762,812 -1775,1210 -3005,1210 -1210,0 -2204,-414 -2969,-1260 -762,-847 -1145,-2007 -1145,-3469 0,-2787 1427,-5359 4281,-7698 2853,-2339 6870,-3503 12032,-3503 3963,0 7200,665 9740,1992 1906,997 3317,2571 4230,4713 583,1376 881,4230 881,8529l0 15099c0,4233 81,6839 248,7783 166,963 432,1593 796,1925 383,317 812,480 1295,480 530,0 979,-116 1377,-329 680,-433 1991,-1612 3951,-3553l0 2722c-3653,4895 -7137,7335 -10455,7335 -1593,0 -2872,-549 -3816,-1644 -947,-1110 -1427,-2985 -1461,-5625zm0 -3167l0 -16943c-4930,1941 -8097,3318 -9543,4130 -2571,1427 -4412,2904 -5525,4465 -1110,1559 -1659,3252 -1659,5093 0,2339 696,4264 2108,5807 1395,1546 3019,2308 4844,2308 2474,0 5726,-1627 9775,-4860zm30433 -59556c1345,0 2505,480 3468,1427 947,963 1427,2123 1427,3468 0,1361 -480,2537 -1427,3500 -963,982 -2123,1461 -3468,1461 -1361,0 -2537,-479 -3500,-1461 -981,-963 -1461,-2139 -1461,-3500 0,-1345 480,-2505 1427,-3468 962,-947 2141,-1427 3534,-1427zm4001 23296l0 35843c0,2772 197,4612 611,5525 399,931 998,1612 1794,2060 797,445 2255,677 4365,677l0 1794 -21606 0 0 -1794c2158,0 3616,-213 4347,-630 746,-414 1329,-1110 1774,-2073 433,-962 650,-2822 650,-5559l0 -17225c0,-4795 -151,-7896 -433,-9323 -232,-1032 -580,-1744 -1079,-2142 -480,-414 -1144,-614 -1972,-614 -916,0 -2010,250 -3305,730l-678 -1794 13390 -5475 2142 0zm27661 -23296l0 59139c0,2772 197,4612 596,5509 414,897 1028,1593 1875,2057 831,464 2405,696 4697,696l0 1794 -21806 0 0 -1794c2041,0 3437,-213 4183,-630 746,-414 1326,-1110 1759,-2073 414,-962 630,-2822 630,-5559l0 -40521c0,-4980 -116,-8031 -332,-9160 -232,-1145 -599,-1925 -1094,-2339 -499,-414 -1145,-631 -1926,-631 -831,0 -1891,264 -3186,778l-831 -1790 13243 -5476 2192 0zm23180 23296c1492,0 2753,533 3800,1578 1044,1044 1574,2304 1574,3800 0,1477 -530,2753 -1574,3801 -1047,1044 -2308,1574 -3800,1574 -1477,0 -2757,-530 -3801,-1574 -1044,-1048 -1577,-2324 -1577,-3801 0,-1496 533,-2756 1577,-3800 1044,-1045 2324,-1578 3801,-1578zm-116 36442c1508,0 2787,529 3832,1593 1044,1059 1561,2323 1561,3800 0,1493 -533,2753 -1593,3798 -1063,1047 -2323,1561 -3800,1561 -1496,0 -2757,-514 -3801,-1561 -1044,-1045 -1558,-2305 -1558,-3798 0,-1477 514,-2741 1558,-3800 1044,-1064 2305,-1593 3801,-1593z"/>
    <path class="fil5" d="M1995415 1235472c2107,0 3882,730 5343,2207 1458,1477 2189,3252 2189,5328 0,2092 -731,3851 -2208,5309 -1474,1461 -3252,2192 -5324,2192 -2092,0 -3851,-731 -5309,-2192 -1462,-1458 -2192,-3217 -2192,-5309 0,-2076 730,-3851 2192,-5328 1458,-1477 3217,-2207 5309,-2207zm6836 22004l0 36043c0,3236 382,5308 1129,6221 762,897 2238,1411 4446,1543l0 1693 -24792 0 0 -1693c2058,-66 3585,-646 4582,-1775 662,-746 994,-2753 994,-5989l0 -26586c0,-3252 -380,-5309 -1145,-6221 -762,-897 -2239,-1411 -4431,-1543l0 -1693 19217 0zm28557 0l0 5873c2324,-2506 4563,-4312 6705,-5456 2138,-1148 4427,-1712 6886,-1712 2954,0 5390,815 7335,2458 1941,1643 3233,3681 3882,6105 514,1860 781,5410 781,10653l0 17723c0,3500 313,5673 943,6538 631,863 1941,1393 3933,1625l0 1693 -22998 0 0 -1693c1724,-232 2954,-944 3700,-2139 514,-815 781,-2822 781,-6024l0 -20244c0,-3735 -151,-6090 -433,-7053 -298,-978 -781,-1725 -1477,-2273 -696,-530 -1458,-797 -2305,-797 -2772,0 -5343,1957 -7733,5874l0 24493c0,3403 314,5557 944,6454 631,912 1810,1477 3537,1709l0 1693 -23001 0 0 -1693c1910,-198 3252,-812 4067,-1841 546,-715 813,-2822 813,-6322l0 -25789c0,-3465 -317,-5641 -947,-6488 -631,-862 -1941,-1408 -3933,-1674l0 -1693 18520 0zm56533 4779l116 31561c0,3070 332,5011 978,5792 1032,1211 2923,1775 5692,1675l0 1693 -26780 0 0 -1693c2057,-32 3534,-264 4396,-712 863,-448 1461,-1063 1794,-1844 313,-778 480,-2421 480,-4911l-66 -31561 -6407 0 0 -4779 6391 0 0 -3302 -19 -2305c0,-4682 1709,-8580 5112,-11716 3418,-3120 8030,-4681 13838,-4681 3982,0 6921,749 8846,2226 1925,1493 2888,3136 2888,4942 0,1461 -599,2706 -1794,3785 -1210,1063 -2787,1593 -4779,1593 -1674,0 -3019,-433 -3998,-1311 -997,-862 -1495,-1825 -1495,-2888 0,-298 100,-897 301,-1790 131,-549 197,-1063 197,-1543 0,-681 -182,-1179 -580,-1496 -514,-480 -1145,-731 -1891,-731 -931,0 -1728,399 -2358,1179 -630,781 -944,2026 -944,3751l31 8545 35 5742 6802 0 0 4779 -6786 0zm34813 -6074c3933,0 7602,1012 11004,3054 3383,2041 5974,4945 7733,8695 1759,3751 2637,7849 2637,12312 0,6440 -1628,11831 -4895,16161 -3948,5247 -9392,7868 -16328,7868 -6821,0 -12079,-2389 -15764,-7187 -3684,-4779 -5525,-10336 -5525,-16642 0,-6503 1875,-12164 5641,-17008 3766,-4830 8928,-7253 15497,-7253zm217 3386c-1643,0 -3055,630 -4231,1875 -1179,1245 -1959,3701 -2323,7366 -383,3685 -565,8781 -565,15319 0,3468 232,6701 681,9724 348,2289 1113,4048 2273,5243 1161,1195 2490,1791 3967,1791 1458,0 2672,-399 3635,-1211 1260,-1094 2088,-2637 2521,-4613 646,-3070 962,-9291 962,-18651 0,-5494 -297,-9276 -912,-11333 -615,-2057 -1527,-3553 -2722,-4497 -831,-680 -1925,-1013 -3286,-1013zm81973 -1492l11866 -499 -8947 30499c-1010,3368 -1508,5892 -1508,7582 0,1029 379,1926 1144,2691 762,762 1709,1144 2804,1144 2258,0 5161,-1295 8711,-3866 3569,-2590 6507,-6272 8846,-11051 2324,-4779 3484,-9890 3484,-15299 0,-8962 -2869,-16313 -8630,-22070 -5757,-5761 -13239,-8646 -22483,-8646 -7965,0 -15200,1876 -21722,5626 -6504,3750 -11681,9191 -15497,16328 -3832,7134 -5742,14801 -5742,22964 0,11235 3569,20426 10718,27579 7153,7153 16247,10737 27297,10737 9110,0 17276,-2440 24510,-7335 7218,-4895 12346,-11383 15365,-19448l2954 0c-3882,9508 -9558,16808 -16993,21869 -7432,5061 -16077,7601 -25917,7601 -12481,0 -22766,-4032 -30866,-12097 -8096,-8063 -12145,-18270 -12145,-30631 0,-8495 2007,-16378 6024,-23628 4014,-7253 9655,-12845 16908,-16761 7269,-3932 15300,-5892 24112,-5892 7168,0 13424,1445 18783,4315 5359,2872 9392,6905 12079,12082 2687,5193 4033,10683 4033,16460 0,6704 -1443,12844 -4346,18385 -2904,5560 -6523,9658 -10838,12295 -4330,2641 -8993,3967 -13970,3967 -3220,0 -5660,-796 -7353,-2374 -1675,-1593 -2521,-3634 -2521,-6121 0,-1743 398,-4017 1179,-6839 -2691,4465 -4779,7551 -6275,9260 -2038,2308 -4080,3983 -6090,5061 -1292,681 -2769,1013 -4428,1013 -2308,0 -4249,-912 -5826,-2737 -1577,-1844 -2355,-4513 -2355,-8050 0,-3631 530,-7184 1574,-10668 1063,-3484 2509,-6755 4315,-9809 1825,-3067 3917,-5807 6306,-8244 2390,-2424 5077,-4431 8066,-6024 1527,-846 3170,-1263 4910,-1263 1825,0 3321,564 4516,1693 1176,1129 1941,3104 2273,5908l1675 -5707zm-7235 1593c-1229,0 -2455,680 -3650,2041 -1627,1856 -3371,4926 -5227,9241 -3321,7749 -4980,13989 -4980,18683 0,1430 301,2540 913,3321 599,781 1260,1160 1975,1160 615,0 1512,-448 2688,-1361 1659,-1260 3437,-3399 5312,-6422 1891,-3020 3434,-6372 4628,-10053 1211,-3685 1810,-7071 1810,-10188 0,-2242 -417,-3951 -1261,-5112 -630,-881 -1361,-1310 -2208,-1310zm66608 44603l-15400 -35246c-1841,-4281 -3286,-7002 -4330,-8147 -747,-847 -1841,-1411 -3302,-1709l0 -1693 24161 0 0 1693c-1512,0 -2556,282 -3105,831 -780,727 -1160,1574 -1160,2552 0,1214 712,3487 2123,6821l7517 17059 5958 -14720c1709,-4246 2571,-7250 2571,-9009 0,-1013 -364,-1841 -1094,-2490 -731,-630 -2010,-978 -3867,-1044l0 -1693 14836 0 0 1693c-1430,197 -2591,731 -3503,1627 -897,878 -2258,3484 -4083,7799l-15083 35676 -2239 0zm40057 -68799c2107,0 3882,730 5343,2207 1458,1477 2189,3252 2189,5328 0,2092 -731,3851 -2208,5309 -1474,1461 -3252,2192 -5324,2192 -2092,0 -3851,-731 -5309,-2192 -1461,-1458 -2192,-3217 -2192,-5309 0,-2076 731,-3851 2192,-5328 1458,-1477 3217,-2207 5309,-2207zm6836 22004l0 36043c0,3236 382,5308 1129,6221 762,897 2239,1411 4446,1543l0 1693 -24791 0 0 -1693c2057,-66 3584,-646 4581,-1775 662,-746 994,-2753 994,-5989l0 -26586c0,-3252 -379,-5309 -1145,-6221 -762,-897 -2238,-1411 -4430,-1543l0 -1693 19216 0zm54045 -20509l0 52368c0,3503 101,5576 298,6225 248,1060 747,1856 1477,2371 715,514 1991,831 3801,962l0 1694 -19216 3684 0 -7203c-2290,2788 -4331,4698 -6125,5692 -1790,1013 -3816,1511 -6071,1511 -5776,0 -10354,-2590 -13706,-7767 -2706,-4199 -4067,-9357 -4067,-15482 0,-4879 846,-9260 2524,-13126 1675,-3867 3964,-6786 6902,-8762 2919,-1972 6055,-2953 9407,-2953 2158,0 4083,417 5761,1263 1674,847 3465,2305 5375,4412l0 -13838c0,-3434 -151,-5510 -433,-6221 -398,-932 -979,-1612 -1756,-2061 -781,-445 -2242,-680 -4381,-680l0 -2089 20210 0zm-13640 30863c-2374,-4578 -5294,-6871 -8727,-6871 -1195,0 -2177,317 -2954,963 -1179,1013 -2158,2772 -2923,5293 -746,2525 -1126,6391 -1126,11584 0,5726 414,9956 1261,12709 828,2757 1972,4732 3418,5958 746,615 1759,929 3035,929 2838,0 5510,-2239 8016,-6702l0 -23863zm61925 23349l1512 1160c-2142,4033 -4814,7018 -8015,8978 -3202,1976 -6604,2954 -10204,2954 -6074,0 -10919,-2273 -14553,-6836 -3635,-4566 -5460,-10056 -5460,-16463 0,-6171 1659,-11615 4961,-16293 3998,-5661 9492,-8498 16494,-8498 4713,0 8445,1179 11217,3552 2772,2355 4164,4996 4164,7899 0,1841 -564,3318 -1674,4431 -1129,1095 -2590,1640 -4396,1640 -1926,0 -3503,-630 -4748,-1891 -1261,-1260 -2023,-3518 -2324,-6751 -182,-2041 -661,-3468 -1411,-4283 -746,-813 -1624,-1211 -2621,-1211 -1559,0 -2885,831 -3998,2471 -1675,2490 -2522,6306 -2522,11433 0,4265 681,8348 2042,12249 1376,3898 3236,6786 5607,8692 1793,1396 3900,2092 6340,2092 1593,0 3101,-364 4528,-1110 1427,-747 3120,-2142 5061,-4215zm28608 -34998c3933,0 7602,1012 11004,3054 3383,2041 5974,4945 7733,8695 1759,3751 2637,7849 2637,12312 0,6440 -1628,11831 -4895,16161 -3948,5247 -9392,7868 -16328,7868 -6821,0 -12079,-2389 -15764,-7187 -3684,-4779 -5525,-10336 -5525,-16642 0,-6503 1875,-12164 5641,-17008 3766,-4830 8928,-7253 15497,-7253zm217 3386c-1643,0 -3055,630 -4230,1875 -1180,1245 -1960,3701 -2324,7366 -383,3685 -565,8781 -565,15319 0,3468 232,6701 681,9724 348,2289 1113,4048 2273,5243 1161,1195 2490,1791 3967,1791 1458,0 2672,-399 3635,-1211 1260,-1094 2088,-2637 2521,-4613 646,-3070 962,-9291 962,-18651 0,-5494 -297,-9276 -912,-11333 -615,-2057 -1527,-3553 -2722,-4497 -831,-680 -1925,-1013 -3286,-1013zm46961 -2091l0 6058c2487,-2738 4795,-4632 6918,-5726 2126,-1079 4447,-1627 6971,-1627 2919,0 5359,680 7350,2041 1976,1361 3484,3437 4563,6224 2590,-2922 5096,-5029 7466,-6321 2390,-1295 4880,-1944 7485,-1944 3136,0 5657,714 7517,2157 1875,1446 3170,3286 3901,5510 727,2223 1094,5757 1094,10636l0 18636c0,3500 314,5673 944,6504 615,847 1944,1395 3936,1659l0 1693 -23497 0 0 -1693c1856,-166 3217,-878 4098,-2139 581,-881 878,-2888 878,-6024l0 -19564c0,-4067 -166,-6638 -479,-7749 -333,-1097 -847,-1909 -1546,-2458 -696,-530 -1509,-797 -2456,-797 -1392,0 -2803,518 -4230,1528 -1427,1028 -2872,2555 -4330,4597l0 24443c0,3268 263,5325 812,6172 746,1194 2173,1859 4265,1991l0 1693 -23497 0 0 -1693c1245,-66 2239,-380 2970,-944 715,-565 1213,-1245 1445,-2042 248,-796 364,-2524 364,-5177l0 -19598c0,-4130 -166,-6721 -480,-7749 -332,-1044 -865,-1860 -1627,-2440 -762,-580 -1578,-878 -2456,-878 -1295,0 -2474,348 -3534,1029 -1527,1013 -3135,2737 -4845,5193l0 24443c0,3202 314,5325 944,6338 615,1028 1941,1627 3933,1825l0 1693 -23397 0 0 -1693c1891,-198 3252,-812 4049,-1841 549,-715 831,-2822 831,-6322l0 -25789c0,-3465 -317,-5641 -947,-6488 -631,-862 -1941,-1408 -3933,-1674l0 -1693 18520 0zm73193 30564c2274,0 4199,797 5776,2390 1578,1593 2355,3502 2355,5741 0,2258 -796,4168 -2389,5742 -1593,1577 -3500,2358 -5742,2358 -2254,0 -4164,-781 -5741,-2358 -1575,-1574 -2355,-3484 -2355,-5742 0,-2239 780,-4148 2355,-5741 1577,-1593 3487,-2390 5741,-2390zm59706 -30564l0 35644c0,3484 317,5657 963,6520 649,865 1960,1411 3916,1643l0 1693 -18517 0 0 -6074c-2176,2590 -4349,4465 -6522,5626 -2173,1163 -4597,1743 -7300,1743 -2556,0 -4829,-781 -6839,-2358 -1992,-1574 -3318,-3418 -3999,-5510 -680,-2107 -1028,-5788 -1028,-11031l0 -18041c0,-3465 -317,-5641 -947,-6488 -630,-862 -1941,-1408 -3932,-1674l0 -1693 18520 0 0 31082c0,3233 147,5324 464,6271 298,944 796,1659 1461,2139 662,483 1427,731 2305,731 1163,0 2207,-314 3154,-929 1292,-846 2854,-2540 4663,-5111l0 -24328c0,-3465 -316,-5641 -947,-6488 -630,-862 -1941,-1408 -3932,-1674l0 -1693 18517 0zm48668 45500l-39524 0 0 -1079 25005 -41433 -7300 0c-3155,0 -5410,282 -6771,847 -1360,564 -2474,1477 -3317,2718 -831,1245 -1709,3487 -2625,6689l-1709 0 0 -13242 38232 0 0 1310 -24707 41004 3104 0c6206,0 10687,-878 13440,-2656 2754,-1759 4814,-4992 6206,-9690l1361 0 -1395 15532z"/>
   </g>
   <path class="fil4" d="M1111918 146840l-30468 0 0 50377c0,4365 549,7137 1659,8297 1114,1179 3719,1825 7799,1957l0 1794 -28275 0 0 -1794c4048,-132 6638,-778 7767,-1957 1129,-1160 1693,-3932 1693,-8297l0 -41916c0,-4362 -564,-7134 -1693,-8295 -1129,-1179 -3719,-1825 -7767,-1959l0 -1791 68100 0 0 1791c-4049,134 -6636,780 -7765,1959 -1128,1161 -1693,3933 -1693,8295l0 41916c0,4365 565,7137 1693,8297 1129,1179 3716,1825 7765,1957l0 1794 -28276 0 0 -1794c4049,-132 6623,-778 7768,-1922 1128,-1164 1693,-3933 1693,-8332l0 -50377zm71901 7266c0,-3948 -634,-6438 -1910,-7482 -1276,-1044 -3866,-1577 -7749,-1577l0 -1791 28474 0 0 1791c-4049,134 -6636,780 -7765,1959 -1129,1161 -1693,3933 -1693,8295l0 41916c0,4365 564,7137 1693,8297 1129,1179 3716,1825 7765,1957l0 1794 -28474 0 0 -1794c4180,-132 6821,-797 7965,-1972 1129,-1195 1694,-3952 1694,-8282l0 -37934 -30468 39329c35,2819 217,4713 565,5673 332,947 1129,1712 2374,2258 1244,549 3449,862 6619,928l0 1794 -28376 0 0 -1794c4049,-132 6639,-778 7768,-1957 1129,-1160 1693,-3932 1693,-8297l0 -41916c0,-4362 -564,-7134 -1693,-8295 -1129,-1179 -3719,-1825 -7768,-1959l0 -1791 28376 0 0 1791c-4114,134 -6720,780 -7864,1959 -1129,1161 -1694,3933 -1694,8295l0 38034 30468 -39229zm71901 0c0,-3948 -634,-6438 -1910,-7482 -1276,-1044 -3867,-1577 -7749,-1577l0 -1791 28473 0 0 1791c-4048,134 -6635,780 -7764,1959 -1129,1161 -1693,3933 -1693,8295l0 41916c0,4365 564,7137 1693,8297 1129,1179 3716,1825 7764,1957l0 1794 -28473 0 0 -1794c4180,-132 6821,-797 7965,-1972 1129,-1195 1694,-3952 1694,-8282l0 -37934 -30468 39329c35,2819 216,4713 565,5673 332,947 1128,1712 2373,2258 1245,549 3450,862 6620,928l0 1794 -28376 0 0 -1794c4048,-132 6639,-778 7768,-1957 1128,-1160 1693,-3932 1693,-8297l0 -41916c0,-4362 -565,-7134 -1693,-8295 -1129,-1179 -3720,-1825 -7768,-1959l0 -1791 28376 0 0 1791c-4114,134 -6720,780 -7865,1959 -1128,1161 -1693,3933 -1693,8295l0 38034 30468 -39229zm81988 -12346c8548,0 15965,3255 22221,9759 6271,6503 9407,14619 9407,24359 0,10022 -3152,18335 -9473,24958 -6306,6619 -13958,9921 -22932,9921 -9063,0 -16677,-3236 -22851,-9689 -6171,-6457 -9260,-14801 -9260,-25059 0,-10470 3568,-19015 10687,-25635 6190,-5741 13590,-8614 22201,-8614zm-928 3487c-5873,0 -10602,2189 -14155,6570 -4431,5459 -6654,13440 -6654,23960 0,10772 2292,19069 6886,24877 3534,4412 8181,6619 13973,6619 6190,0 11283,-2424 15315,-7250 4033,-4848 6040,-12464 6040,-22885 0,-11298 -2223,-19727 -6654,-25271 -3550,-4412 -8461,-6620 -14751,-6620zm72829 -3487c8548,0 15964,3255 22220,9759 6272,6503 9408,14619 9408,24359 0,10022 -3152,18335 -9473,24958 -6307,6619 -13958,9921 -22933,9921 -9062,0 -16676,-3236 -22850,-9689 -6171,-6457 -9260,-14801 -9260,-25059 0,-10470 3568,-19015 10687,-25635 6190,-5741 13590,-8614 22201,-8614zm-928 3487c-5873,0 -10602,2189 -14155,6570 -4431,5459 -6654,13440 -6654,23960 0,10772 2292,19069 6886,24877 3534,4412 8181,6619 13973,6619 6190,0 11283,-2424 15315,-7250 4033,-4848 6040,-12464 6040,-22885 0,-11298 -2223,-19727 -6654,-25271 -3550,-4412 -8461,-6620 -14751,-6620zm72829 -3487c8548,0 15964,3255 22220,9759 6272,6503 9408,14619 9408,24359 0,10022 -3152,18335 -9474,24958 -6306,6619 -13957,9921 -22932,9921 -9062,0 -16676,-3236 -22850,-9689 -6172,-6457 -9260,-14801 -9260,-25059 0,-10470 3568,-19015 10686,-25635 6190,-5741 13591,-8614 22202,-8614zm-928 3487c-5874,0 -10602,2189 -14155,6570 -4431,5459 -6655,13440 -6655,23960 0,10772 2293,19069 6887,24877 3534,4412 8181,6619 13973,6619 6190,0 11282,-2424 15315,-7250 4033,-4848 6040,-12464 6040,-22885 0,-11298 -2224,-19727 -6655,-25271 -3549,-4412 -8460,-6620 -14750,-6620zm86040 64416l-2788 0 -18818 -22948 18818 -22851 2788 0 -11847 22851 11847 22948zm21903 0l-2787 0 -19116 -22948 19116 -22851 2787 0 -11746 22851 11746 22948zm33952 -2192l0 1794 -28276 0 0 -1794 2340 0c2737,0 4713,-797 5958,-2371 777,-1047 1160,-3534 1160,-7485l0 -42713c0,-3333 -217,-5541 -631,-6604 -332,-812 -997,-1508 -2006,-2088 -1427,-781 -2923,-1163 -4481,-1163l-2340 0 0 -1791 28276 0 0 1791 -2374 0c-2687,0 -4647,796 -5873,2373 -813,1045 -1211,3534 -1211,7482l0 42713c0,3337 213,5544 630,6604 314,815 995,1512 2039,2092 1395,781 2856,1160 4415,1160l2374 0zm1063 -64215l17736 0 40439 49564 0 -38115c0,-4064 -464,-6604 -1376,-7617 -1211,-1361 -3136,-2041 -5758,-2041l-2323 0 0 -1791 23198 0 0 1791 -2358 0c-2838,0 -4829,846 -6024,2540 -712,1044 -1075,3418 -1075,7118l0 55623 -1759 0 -43444 -53168 0 40656c0,4064 449,6604 1327,7617 1244,1361 3170,2038 5776,2038l2355 0 0 1794 -23196 0 0 -1794 2321 0c2856,0 4863,-844 6058,-2537 712,-1047 1079,-3418 1079,-7118l0 -45899c-1910,-2239 -3368,-3716 -4350,-4431 -994,-712 -2439,-1376 -4346,-2007 -947,-282 -2374,-432 -4280,-432l0 -1791zm130872 0l700 15513 -1844 0c-364,-2719 -847,-4679 -1461,-5839 -1010,-1875 -2340,-3271 -4014,-4149 -1678,-897 -3867,-1345 -6589,-1345l-9291 0 0 50380c0,4064 430,6604 1311,7617 1226,1361 3120,2038 5676,2038l2273 0 0 1794 -28078 0 0 -1794 2374 0c2819,0 4810,-844 6005,-2537 715,-1047 1079,-3418 1079,-7118l0 -50380 -7915 0c-3086,0 -5278,232 -6570,680 -1693,615 -3120,1794 -4330,3553 -1195,1741 -1910,4115 -2142,7100l-1841 0 697 -15513 53960 0zm23980 3584l0 26084 14534 0c3767,0 6275,-565 7536,-1694 1690,-1492 2621,-4114 2819,-7864l1794 0 0 22998 -1794 0c-449,-3217 -913,-5293 -1361,-6206 -580,-1126 -1543,-2022 -2869,-2672 -1327,-646 -3368,-978 -6125,-978l-14534 0 0 21772c0,2919 132,4694 379,5328 267,630 715,1144 1361,1508 649,383 1894,564 3701,564l11169 0c3716,0 6422,-266 8113,-780 1677,-515 3302,-1543 4848,-3070 2007,-2007 4064,-5043 6171,-9094l1991 0 -5691 16529 -50860 0 0 -1794 2339 0c1562,0 3039,-379 4431,-1126 1044,-514 1759,-1295 2123,-2339 383,-1047 565,-3170 565,-6391l0 -42910c0,-4183 -414,-6755 -1261,-7717 -1179,-1292 -3120,-1941 -5858,-1941l-2339 0 0 -1791 50875 0 700 14534 -1894 0c-681,-3499 -1427,-5907 -2255,-7218 -831,-1311 -2060,-2305 -3669,-3001 -1295,-483 -3584,-731 -6852,-731l-18087 0zm107345 62425l-17674 0 -22417 -30866c-1609,69 -2920,100 -3933,100 -414,0 -862,-15 -1329,-31 -480,-19 -960,-35 -1474,-69l0 19216c0,4149 445,6720 1358,7717 1229,1427 3070,2139 5528,2139l2571 0 0 1794 -28275 0 0 -1794 2471 0c2788,0 4779,-913 5974,-2719 680,-997 1012,-3386 1012,-7137l0 -42713c0,-4145 -448,-6720 -1360,-7714 -1261,-1426 -3136,-2141 -5626,-2141l-2471 0 0 -1791 24026 0c7018,0 12180,514 15501,1527 3333,1029 6155,2920 8460,5657 2324,2738 3487,6008 3487,9806 0,4067 -1330,7585 -3967,10571 -2656,2988 -6739,5095 -12295,6340l13656 18900c3120,4346 5792,7250 8031,8676 2223,1446 5143,2340 8746,2738l0 1794zm-46827 -33952c611,0 1144,0 1593,19 445,16 812,31 1094,31 6222,0 10919,-1360 14071,-4082 3170,-2738 4747,-6206 4747,-10421 0,-4114 -1279,-7466 -3819,-10056 -2553,-2571 -5939,-3867 -10138,-3867 -1857,0 -4381,301 -7548,897l0 27479zm108555 -32057l0 1791c-2324,432 -4098,1179 -5293,2257 -1709,1593 -3236,4049 -4566,7351l-22913 56102 -1794 0 -24676 -56849c-1260,-2938 -2157,-4728 -2671,-5378 -812,-1009 -1806,-1806 -3001,-2389 -1179,-561 -2772,-928 -4779,-1094l0 -1791 26914 0 0 1791c-3054,297 -5029,815 -5942,1561 -894,746 -1361,1690 -1361,2869 0,1609 750,4149 2242,7583l16777 38649 15582 -38166c1524,-3766 2289,-6372 2289,-7834 0,-928 -483,-1840 -1411,-2687 -947,-862 -2540,-1477 -4764,-1825 -166,-34 -448,-85 -828,-150l0 -1791 20195 0zm32026 64215l0 1794 -28276 0 0 -1794 2340 0c2737,0 4713,-797 5958,-2371 777,-1047 1160,-3534 1160,-7485l0 -42713c0,-3333 -216,-5541 -630,-6604 -333,-812 -997,-1508 -2007,-2088 -1427,-781 -2923,-1163 -4481,-1163l-2340 0 0 -1791 28276 0 0 1791 -2374 0c-2687,0 -4647,796 -5873,2373 -812,1045 -1211,3534 -1211,7482l0 42713c0,3337 214,5544 631,6604 313,815 994,1512 2038,2092 1395,781 2857,1160 4415,1160l2374 0zm4083 1794l0 -1794 2471 0c2788,0 4763,-894 5923,-2669 715,-1063 1063,-3468 1063,-7187l0 -42713c0,-4114 -448,-6685 -1361,-7714 -1260,-1426 -3135,-2141 -5625,-2141l-2471 0 0 -1791 26830 0c9859,0 17356,1110 22487,3352 5142,2239 9275,5974 12392,11201 3139,5225 4698,11267 4698,18103 0,9191 -2788,16858 -8363,23033 -6256,6886 -15780,10320 -28593,10320l-29451 0zm18818 -4845c4114,912 7548,1361 10335,1361 7501,0 13723,-2641 18687,-7934 4945,-5274 7416,-12443 7416,-21486 0,-9113 -2471,-16297 -7416,-21540 -4964,-5259 -11318,-7884 -19085,-7884 -2904,0 -6221,468 -9937,1412l0 56071zm72198 -57580l0 26084 14535 0c3766,0 6275,-565 7535,-1694 1690,-1492 2622,-4114 2819,-7864l1794 0 0 22998 -1794 0c-448,-3217 -912,-5293 -1361,-6206 -580,-1126 -1542,-2022 -2869,-2672 -1326,-646 -3368,-978 -6124,-978l-14535 0 0 21772c0,2919 132,4694 380,5328 266,630 715,1144 1361,1508 649,383 1894,564 3700,564l11170 0c3716,0 6422,-266 8112,-780 1678,-515 3302,-1543 4848,-3070 2007,-2007 4064,-5043 6171,-9094l1992 0 -5692 16529 -50859 0 0 -1794 2339 0c1561,0 3038,-379 4431,-1126 1044,-514 1759,-1295 2123,-2339 382,-1047 564,-3170 564,-6391l0 -42910c0,-4183 -414,-6755 -1260,-7717 -1180,-1292 -3121,-1941 -5858,-1941l-2339 0 0 -1791 50875 0 699 14534 -1894 0c-680,-3499 -1427,-5907 -2255,-7218 -831,-1311 -2060,-2305 -3668,-3001 -1296,-483 -3585,-731 -6852,-731l-18088 0zm76379 -5080c8548,0 15965,3255 22221,9759 6271,6503 9407,14619 9407,24359 0,10022 -3152,18335 -9473,24958 -6306,6619 -13958,9921 -22932,9921 -9063,0 -16677,-3236 -22851,-9689 -6171,-6457 -9260,-14801 -9260,-25059 0,-10470 3568,-19015 10687,-25635 6190,-5741 13590,-8614 22201,-8614zm-928 3487c-5873,0 -10602,2189 -14155,6570 -4431,5459 -6654,13440 -6654,23960 0,10772 2292,19069 6886,24877 3534,4412 8181,6619 13973,6619 6190,0 11283,-2424 15315,-7250 4033,-4848 6040,-12464 6040,-22885 0,-11298 -2223,-19727 -6654,-25271 -3550,-4412 -8461,-6620 -14751,-6620zm107047 -3487l0 22801 -1791 0c-580,-4381 -1627,-7865 -3135,-10455 -1512,-2587 -3669,-4644 -6473,-6171 -2787,-1528 -5676,-2290 -8661,-2290 -3386,0 -6174,1029 -8382,3086 -2204,2057 -3318,4415 -3318,7037 0,2007 697,3847 2092,5506 2023,2424 6802,5676 14368,9724 6175,3321 10389,5858 12647,7617 2255,1775 3998,3851 5209,6256 1210,2409 1825,4914 1825,7551 0,4996 -1941,9292 -5808,12910 -3882,3616 -8877,5425 -14967,5425 -1925,0 -3716,-147 -5409,-448 -1013,-166 -3086,-762 -6256,-1791 -3152,-1028 -5162,-1542 -6008,-1542 -813,0 -1459,247 -1923,730 -467,496 -815,1508 -1047,3051l-1791 0 0 -22599 1791 0c847,4728 1975,8281 3402,10621 1427,2355 3619,4311 6554,5857 2938,1559 6156,2340 9658,2340 4049,0 7269,-1079 9608,-3221 2355,-2157 3535,-4694 3535,-7617 0,-1624 -449,-3267 -1327,-4926 -897,-1662 -2273,-3205 -4149,-4647 -1260,-979 -4728,-3036 -10388,-6191 -5657,-3135 -9690,-5656 -12080,-7532 -2389,-1875 -4214,-3966 -5443,-6224 -1245,-2274 -1857,-4779 -1857,-7498 0,-4732 1825,-8812 5457,-12230 3634,-3418 8281,-5130 13891,-5130 3515,0 7234,866 11167,2575 1825,812 3101,1210 3851,1210 843,0 1542,-248 2072,-746 530,-514 963,-1512 1295,-3039l1791 0zm40439 65711l0 1794 -28275 0 0 -1794 2339 0c2738,0 4713,-797 5958,-2371 778,-1047 1160,-3534 1160,-7485l0 -42713c0,-3333 -216,-5541 -630,-6604 -332,-812 -997,-1508 -2007,-2088 -1427,-781 -2923,-1163 -4481,-1163l-2339 0 0 -1791 28275 0 0 1791 -2374 0c-2687,0 -4647,796 -5873,2373 -812,1045 -1210,3534 -1210,7482l0 42713c0,3337 213,5544 630,6604 314,815 994,1512 2038,2092 1396,781 2857,1160 4415,1160l2374 0zm48088 -65711l0 22801 -1791 0c-580,-4381 -1627,-7865 -3136,-10455 -1511,-2587 -3668,-4644 -6472,-6171 -2788,-1528 -5676,-2290 -8661,-2290 -3387,0 -6174,1029 -8382,3086 -2204,2057 -3318,4415 -3318,7037 0,2007 696,3847 2092,5506 2023,2424 6801,5676 14368,9724 6175,3321 10389,5858 12647,7617 2254,1775 3998,3851 5208,6256 1211,2409 1825,4914 1825,7551 0,4996 -1941,9292 -5807,12910 -3882,3616 -8878,5425 -14967,5425 -1926,0 -3716,-147 -5409,-448 -1013,-166 -3086,-762 -6256,-1791 -3152,-1028 -5162,-1542 -6009,-1542 -812,0 -1458,247 -1922,730 -467,496 -815,1508 -1047,3051l-1791 0 0 -22599 1791 0c846,4728 1975,8281 3402,10621 1427,2355 3619,4311 6554,5857 2938,1559 6156,2340 9658,2340 4049,0 7269,-1079 9608,-3221 2355,-2157 3534,-4694 3534,-7617 0,-1624 -448,-3267 -1326,-4926 -897,-1662 -2274,-3205 -4149,-4647 -1260,-979 -4729,-3036 -10389,-6191 -5657,-3135 -9689,-5656 -12079,-7532 -2389,-1875 -4214,-3966 -5444,-6224 -1244,-2274 -1856,-4779 -1856,-7498 0,-4732 1825,-8812 5456,-12230 3635,-3418 8282,-5130 13892,-5130 3515,0 7234,866 11167,2575 1825,812 3101,1210 3850,1210 844,0 1543,-248 2073,-746 530,-514 963,-1512 1295,-3039l1791 0zm67319 1496l699 15513 -1843 0c-364,-2719 -847,-4679 -1462,-5839 -1009,-1875 -2339,-3271 -4014,-4149 -1677,-897 -3866,-1345 -6588,-1345l-9291 0 0 50380c0,4064 429,6604 1311,7617 1226,1361 3120,2038 5675,2038l2274 0 0 1794 -28078 0 0 -1794 2374 0c2819,0 4810,-844 6005,-2537 715,-1047 1078,-3418 1078,-7118l0 -50380 -7914 0c-3086,0 -5278,232 -6570,680 -1693,615 -3120,1794 -4330,3553 -1195,1741 -1910,4115 -2142,7100l-1841 0 696 -15513 53961 0zm23980 3584l0 26084 14534 0c3766,0 6275,-565 7535,-1694 1691,-1492 2622,-4114 2819,-7864l1794 0 0 22998 -1794 0c-448,-3217 -912,-5293 -1360,-6206 -581,-1126 -1543,-2022 -2870,-2672 -1326,-646 -3368,-978 -6124,-978l-14534 0 0 21772c0,2919 131,4694 379,5328 267,630 715,1144 1361,1508 649,383 1894,564 3700,564l11170 0c3716,0 6422,-266 8112,-780 1678,-515 3302,-1543 4848,-3070 2007,-2007 4064,-5043 6172,-9094l1991 0 -5692 16529 -50859 0 0 -1794 2339 0c1562,0 3039,-379 4431,-1126 1044,-514 1759,-1295 2123,-2339 382,-1047 564,-3170 564,-6391l0 -42910c0,-4183 -414,-6755 -1260,-7717 -1179,-1292 -3120,-1941 -5858,-1941l-2339 0 0 -1791 50875 0 699 14534 -1894 0c-680,-3499 -1427,-5907 -2254,-7218 -831,-1311 -2061,-2305 -3669,-3001 -1295,-483 -3585,-731 -6852,-731l-18087 0zm80728 62425l-25488 -55539 0 44090c0,4064 448,6604 1326,7617 1211,1361 3136,2038 5777,2038l2355 0 0 1794 -23199 0 0 -1794 2374 0c2822,0 4813,-844 6008,-2537 712,-1047 1079,-3418 1079,-7118l0 -43111c0,-2920 -333,-5046 -982,-6338 -464,-947 -1311,-1727 -2537,-2373 -1245,-631 -3220,-947 -5942,-947l0 -1791 18918 0 23795 51606 23578 -51606 18736 0 0 1791 -2308 0c-2869,0 -4879,846 -6074,2540 -712,1044 -1075,3418 -1075,7118l0 43111c0,4064 464,6604 1376,7617 1211,1361 3136,2038 5773,2038l2308 0 0 1794 -28275 0 0 -1794 2370 0c2857,0 4848,-844 6008,-2537 715,-1047 1079,-3418 1079,-7118l0 -44090 -25387 55539 -1593 0zm93503 -67505l0 22801 -1790 0c-581,-4381 -1628,-7865 -3136,-10455 -1512,-2587 -3669,-4644 -6473,-6171 -2787,-1528 -5675,-2290 -8661,-2290 -3386,0 -6174,1029 -8382,3086 -2204,2057 -3317,4415 -3317,7037 0,2007 696,3847 2091,5506 2023,2424 6802,5676 14369,9724 6174,3321 10388,5858 12646,7617 2255,1775 3998,3851 5209,6256 1210,2409 1825,4914 1825,7551 0,4996 -1941,9292 -5808,12910 -3882,3616 -8877,5425 -14967,5425 -1925,0 -3716,-147 -5409,-448 -1013,-166 -3086,-762 -6256,-1791 -3152,-1028 -5162,-1542 -6008,-1542 -812,0 -1458,247 -1923,730 -467,496 -815,1508 -1047,3051l-1790 0 0 -22599 1790 0c847,4728 1976,8281 3402,10621 1427,2355 3619,4311 6554,5857 2939,1559 6156,2340 9659,2340 4048,0 7268,-1079 9608,-3221 2355,-2157 3534,-4694 3534,-7617 0,-1624 -449,-3267 -1327,-4926 -897,-1662 -2273,-3205 -4148,-4647 -1261,-979 -4729,-3036 -10389,-6191 -5657,-3135 -9690,-5656 -12079,-7532 -2390,-1875 -4215,-3966 -5444,-6224 -1245,-2274 -1857,-4779 -1857,-7498 0,-4732 1825,-8812 5457,-12230 3634,-3418 8281,-5130 13891,-5130 3516,0 7235,866 11167,2575 1825,812 3101,1210 3851,1210 843,0 1543,-248 2072,-746 530,-514 963,-1512 1296,-3039l1790 0zm34663 22104l2788 0 18818 22948 -18818 22851 -2788 0 11850 -22851 -11850 -22948zm-21903 0l2787 0 19116 22948 -19116 22851 -2787 0 11750 -22851 -11750 -22948z"/>
   <g id="_704278163184">
    <path class="fil4" d="M198794 1170407l-25572 0 -4412 10339c-1095,2555 -1659,4481 -1659,5741 0,994 480,1891 1442,2656 947,747 3020,1242 6190,1474l0 1794 -20809 0 0 -1794c2753,-480 4531,-1110 5344,-1891 1658,-1558 3483,-4729 5490,-9492l23218 -54328 1640 0 22951 54911c1841,4413 3518,7266 5027,8596 1511,1310 3599,2041 6306,2204l0 1794 -26018 0 0 -1794c2621,-132 4396,-561 5324,-1311 932,-746 1377,-1658 1377,-2737 0,-1427 -646,-3682 -1941,-6770l-3898 -9392zm-1492 -3584l-11120 -26633 -11417 26633 22537 0zm36936 -19016l39326 0 0 1791c-2207,0 -3681,216 -4412,665 -730,432 -1295,978 -1728,1627 -414,646 -630,2769 -630,6337l0 22105c0,4644 398,7497 1195,8560 796,1048 2656,1628 5575,1725l0 14139 -1891 0c-131,-2656 -780,-4976 -1975,-6952 -1195,-1975 -2838,-3367 -4945,-4183 -2123,-812 -5243,-1210 -9373,-1210l-11518 0c-3569,0 -6372,317 -8379,947 -2026,630 -3700,1957 -5061,3964 -1345,2010 -2158,4481 -2455,7434l-1694 0 0 -14139c2672,-97 5096,-1160 7285,-3167 2173,-2026 4098,-5974 5757,-11847 1659,-5892 2490,-11684 2490,-17376 0,-5591 -2521,-8463 -7567,-8629l0 -1791zm10753 3186l0 2672c0,15930 -2888,27777 -8661,35560l16560 0c2985,0 4694,-248 5161,-746 446,-515 681,-2374 681,-5576l0 -31910 -13741 0zm30646 1195l13691 -5475 1841 0 0 10320c2308,-3882 4612,-6620 6936,-8182 2324,-1558 4763,-2339 7335,-2339 4481,0 8212,1744 11201,5243 3666,4284 5494,9859 5494,16727 0,7682 -2208,14023 -6623,19050 -3634,4117 -8213,6174 -13722,6174 -2406,0 -4481,-332 -6241,-1013 -1292,-483 -2753,-1442 -4380,-2904l0 13575c0,3067 182,5011 564,5839 367,831 1029,1493 1960,1991 913,483 2603,731 5042,731l0 1794 -23396 0 0 -1794 1229 0c1791,34 3318,-298 4579,-1013 630,-364 1113,-928 1442,-1725 351,-780 518,-2803 518,-6023l0 -42315c0,-2854 -135,-4663 -383,-5425 -267,-781 -681,-1361 -1245,-1743 -564,-380 -1326,-581 -2308,-581 -762,0 -1759,232 -2954,681l-580 -1593zm15532 7733l0 16660c0,3616 150,5990 432,7119 465,1890 1578,3549 3334,4976 1778,1427 4017,2142 6704,2142 3252,0 5877,-1261 7884,-3801 2637,-3317 3947,-7980 3947,-13989 0,-6820 -1492,-12079 -4477,-15744 -2076,-2540 -4547,-3801 -7404,-3801 -1559,0 -3101,379 -4629,1160 -1160,599 -3101,2340 -5791,5278zm44904 4713c-34,6588 1575,11747 4811,15497 3236,3735 7052,5610 11433,5610 2904,0 5444,-797 7601,-2389 2157,-1578 3964,-4350 5425,-8266l1493 981c-681,4478 -2653,8545 -5924,12179 -3267,3635 -7366,5460 -12280,5460 -5343,0 -9921,-2076 -13722,-6240 -3801,-4165 -5707,-9756 -5707,-16777 0,-7598 1957,-13540 5857,-17786 3898,-4265 8793,-6391 14685,-6391 4977,0 9075,1643 12280,4930 3202,3286 4811,7682 4811,13192l-30763 0zm0 -2788l20609 0c-166,-2853 -499,-4863 -1013,-6024 -812,-1809 -2026,-3236 -3634,-4264 -1593,-1045 -3268,-1562 -5027,-1562 -2691,0 -5096,1047 -7219,3139 -2123,2088 -3352,4992 -3716,8711zm77125 13622c-1194,5892 -3549,10389 -7052,13525 -3500,3136 -7366,4713 -11615,4713 -5061,0 -9476,-2126 -13227,-6372 -3766,-4233 -5641,-9975 -5641,-17209 0,-6987 2076,-12678 6240,-17059 4164,-4362 9160,-6554 14983,-6554 4381,0 7965,1163 10787,3484 2819,2308 4230,4713 4230,7219 0,1229 -398,2223 -1194,2988 -797,762 -1891,1145 -3318,1145 -1910,0 -3337,-615 -4280,-1860 -584,-680 -963,-1991 -1145,-3917 -185,-1922 -831,-3399 -1960,-4412 -1144,-978 -2703,-1461 -4713,-1461 -3252,0 -5858,1195 -7830,3603 -2622,3186 -3932,7382 -3932,12625 0,5328 1310,10025 3913,14105 2622,4067 6140,6108 10587,6108 3186,0 6042,-1063 8563,-3205 1791,-1477 3519,-4195 5212,-8146l1392 680zm17210 -28956c1492,0 2753,533 3800,1577 1045,1045 1574,2305 1574,3801 0,1477 -529,2753 -1574,3801 -1047,1044 -2308,1574 -3800,1574 -1477,0 -2757,-530 -3801,-1574 -1044,-1048 -1577,-2324 -1577,-3801 0,-1496 533,-2756 1577,-3801 1044,-1044 2324,-1577 3801,-1577zm-116 36441c1508,0 2787,530 3832,1593 1044,1060 1561,2324 1561,3801 0,1492 -533,2753 -1593,3797 -1063,1048 -2323,1562 -3800,1562 -1496,0 -2757,-514 -3801,-1562 -1044,-1044 -1558,-2305 -1558,-3797 0,-1477 514,-2741 1558,-3801 1044,-1063 2305,-1593 3801,-1593z"/>
    <path class="fil5" d="M535131 1173593l-23080 0 -2872 6438c-912,2157 -1361,3951 -1361,5362 0,1875 746,3252 2223,4149 882,514 3039,912 6473,1176l0 1693 -21920 0 0 -1693c2355,-364 4315,-1361 5824,-2970 1527,-1628 3418,-4977 5641,-10057l23562 -52584 932 0 23778 54046c2274,5177 4130,8444 5592,9790 1113,1028 2656,1608 4678,1775l0 1693 -31891 0 0 -1693 1311 0c2556,0 4362,-364 5393,-1095 712,-514 1060,-1276 1060,-2258 0,-595 -81,-1210 -282,-1840 -66,-283 -545,-1528 -1458,-3701l-3603 -8231zm-1559 -3584l-9840 -22484 -10072 22484 19912 0zm53149 17723l0 17024c0,2355 182,3967 565,4814 367,843 947,1477 1727,1856 778,399 2305,599 4579,599l0 1694 -26084 0 0 -1694c2057,-66 3584,-630 4578,-1728 665,-746 998,-2703 998,-5838l0 -48091c0,-3252 -383,-5309 -1148,-6222 -762,-896 -2239,-1411 -4428,-1542l0 -1694 19213 0 0 5974c1593,-2324 3205,-4014 4864,-5042 2355,-1477 4926,-2227 7714,-2227 3336,0 6372,1048 9109,3155 2741,2107 4814,5011 6241,8711 1426,3700 2141,7683 2141,11963 0,4597 -730,8796 -2207,12597 -1477,3797 -3619,6685 -6422,8677 -2788,1991 -5908,2988 -9342,2988 -2490,0 -4829,-549 -7002,-1659 -1609,-831 -3321,-2273 -5096,-4315zm0 -4914c2788,3936 5776,5908 8962,5908 1759,0 3202,-912 4331,-2753 1693,-2722 2540,-7883 2540,-15500 0,-7815 -931,-13158 -2772,-16027 -1245,-1910 -2888,-2857 -4980,-2857 -3267,0 -5974,2358 -8081,7071l0 24158zm37752 9593l0 -1693c1872,0 3186,-480 3948,-1443 746,-963 1129,-2803 1129,-5525l0 -27978c0,-2904 -367,-4829 -1113,-5757 -747,-947 -2057,-1411 -3964,-1411l0 -1694 23196 0 0 1694c-1644,66 -2804,498 -3469,1276 -680,796 -1009,2590 -1009,5394l0 11947 13042 0 0 -11947c0,-2305 -251,-3999 -731,-5062 -483,-1078 -1709,-1608 -3650,-1608l0 -1694 23098 0 0 1694c-1875,0 -3186,464 -3951,1411 -746,944 -1126,2537 -1126,4760l0 28975c0,2869 364,4744 1110,5591 747,847 2057,1311 3967,1377l0 1693 -23098 0 0 -1693c1624,-32 2753,-414 3402,-1161 646,-746 979,-2571 979,-5509l0 -13641 -13042 0 0 13343c0,2904 329,4794 1009,5672 665,866 1825,1296 3469,1296l0 1693 -23196 0zm82453 -6770c-5544,4910 -10540,7369 -14936,7369 -2606,0 -4763,-847 -6488,-2556 -1709,-1693 -2571,-3835 -2571,-6391 0,-3468 1492,-6588 4481,-9357 2985,-2772 9489,-6457 19514,-11050l0 -4566c0,-3418 -185,-5576 -565,-6469 -366,-882 -1078,-1662 -2126,-2324 -1044,-665 -2223,-997 -3518,-997 -2123,0 -3866,464 -5224,1411 -847,580 -1264,1261 -1264,2041 0,681 448,1509 1361,2522 1229,1395 1844,2737 1844,4032 0,1577 -583,2938 -1778,4048 -1176,1114 -2719,1678 -4629,1678 -2041,0 -3750,-614 -5127,-1844 -1376,-1226 -2072,-2671 -2072,-4311 0,-2343 928,-4566 2768,-6689 1860,-2107 4431,-3735 7733,-4879 3318,-1129 6755,-1694 10323,-1694 4312,0 7730,916 10239,2741 2521,1825 4145,3797 4895,5939 445,1361 680,4481 680,9361l0 17604c0,2057 82,3368 248,3901 166,530 398,928 731,1195 332,247 696,379 1110,379 862,0 1728,-580 2621,-1740l1462 1125c-1628,2409 -3302,4168 -5046,5247 -1725,1094 -3700,1643 -5905,1643 -2590,0 -4631,-615 -6093,-1828 -1458,-1226 -2339,-3070 -2668,-5541zm0 -3585l0 -15133c-3917,2308 -6839,4763 -8762,7385 -1263,1740 -1894,3518 -1894,5293 0,1493 534,2803 1612,3932 812,878 1941,1311 3399,1311 1628,0 3503,-928 5645,-2788zm61709 -1442l1512 1160c-2142,4033 -4814,7018 -8015,8978 -3202,1976 -6604,2954 -10204,2954 -6074,0 -10919,-2274 -14553,-6836 -3635,-4566 -5460,-10057 -5460,-16463 0,-6171 1659,-11615 4961,-16294 3998,-5660 9492,-8498 16494,-8498 4713,0 8445,1179 11217,3553 2772,2355 4164,4995 4164,7899 0,1841 -564,3318 -1674,4431 -1129,1094 -2590,1640 -4397,1640 -1925,0 -3502,-630 -4747,-1891 -1261,-1260 -2023,-3518 -2324,-6751 -182,-2042 -661,-3468 -1411,-4284 -746,-812 -1624,-1210 -2621,-1210 -1559,0 -2885,831 -3999,2471 -1674,2490 -2521,6306 -2521,11433 0,4265 681,8348 2042,12249 1376,3897 3236,6785 5606,8692 1794,1395 3901,2092 6341,2092 1593,0 3101,-364 4528,-1111 1427,-746 3120,-2141 5061,-4214zm33472 5027c-5544,4910 -10540,7369 -14936,7369 -2606,0 -4763,-847 -6488,-2556 -1709,-1693 -2571,-3835 -2571,-6391 0,-3468 1492,-6588 4481,-9357 2985,-2772 9489,-6457 19514,-11050l0 -4566c0,-3418 -185,-5576 -565,-6469 -366,-882 -1078,-1662 -2126,-2324 -1044,-665 -2223,-997 -3518,-997 -2123,0 -3866,464 -5224,1411 -847,580 -1264,1261 -1264,2041 0,681 448,1509 1361,2522 1229,1395 1844,2737 1844,4032 0,1577 -583,2938 -1778,4048 -1176,1114 -2719,1678 -4629,1678 -2041,0 -3750,-614 -5127,-1844 -1376,-1226 -2072,-2671 -2072,-4311 0,-2343 928,-4566 2769,-6689 1859,-2107 4430,-3735 7732,-4879 3318,-1129 6755,-1694 10323,-1694 4312,0 7730,916 10239,2741 2521,1825 4145,3797 4895,5939 445,1361 680,4481 680,9361l0 17604c0,2057 82,3368 248,3901 166,530 398,928 731,1195 332,247 696,379 1110,379 862,0 1728,-580 2621,-1740l1462 1125c-1628,2409 -3302,4168 -5046,5247 -1725,1094 -3700,1643 -5905,1643 -2590,0 -4631,-615 -6093,-1828 -1458,-1226 -2339,-3070 -2668,-5541zm0 -3585l0 -15133c-3917,2308 -6839,4763 -8762,7385 -1263,1740 -1894,3518 -1894,5293 0,1493 534,2803 1612,3932 812,878 1941,1311 3399,1311 1628,0 3503,-928 5645,-2788zm50295 -42113c-5177,0 -9345,-816 -12512,-2440 -3154,-1628 -4729,-3816 -4729,-6573 0,-1458 414,-2621 1261,-3468 847,-843 1841,-1260 3020,-1260 2555,0 4446,2025 5676,6058 545,1825 1292,3101 2254,3816 963,712 2424,1079 4397,1079 2656,0 4349,-367 5095,-1079 747,-715 1377,-1910 1891,-3568 1330,-4199 3271,-6306 5827,-6306 1210,0 2223,417 3069,1244 844,831 1261,1992 1261,3484 0,2757 -1477,4945 -4415,6573 -2954,1624 -6987,2440 -12095,2440zm1775 52468l0 -1693c2919,0 4381,-2224 4381,-6670l0 -22403 -13042 22403c31,4346 1524,6569 4478,6670l0 1693 -23196 0 0 -1693c1841,0 3136,-530 3914,-1575 781,-1047 1163,-2872 1163,-5494l0 -28175c0,-4581 -1693,-6870 -5077,-6870l0 -1694 23196 0 0 1694c-1709,66 -2885,548 -3519,1477 -646,912 -959,2703 -959,5393l0 22302 13042 -22603c-35,-2455 -383,-4164 -1063,-5127 -697,-963 -1791,-1442 -3318,-1442l0 -1694 23199 0 0 1694c-1760,34 -3055,479 -3901,1326 -847,862 -1277,2506 -1277,4945l0 28972c0,2741 380,4566 1145,5494 762,912 2107,1377 4033,1377l0 1693 -23199 0zm67003 -11797l1511 1160c-2142,4033 -4813,7018 -8015,8978 -3202,1976 -6604,2954 -10204,2954 -6074,0 -10919,-2274 -14553,-6836 -3635,-4566 -5460,-10057 -5460,-16463 0,-6171 1659,-11615 4961,-16294 3998,-5660 9492,-8498 16495,-8498 4713,0 8444,1179 11216,3553 2772,2355 4165,4995 4165,7899 0,1841 -565,3318 -1675,4431 -1129,1094 -2590,1640 -4396,1640 -1926,0 -3503,-630 -4748,-1891 -1260,-1260 -2022,-3518 -2324,-6751 -181,-2042 -661,-3468 -1411,-4284 -746,-812 -1624,-1210 -2621,-1210 -1559,0 -2885,831 -3998,2471 -1675,2490 -2521,6306 -2521,11433 0,4265 680,8348 2041,12249 1377,3897 3236,6785 5607,8692 1793,1395 3901,2092 6340,2092 1593,0 3102,-364 4528,-1111 1427,-746 3121,-2141 5062,-4214zm7268 -33704l23199 0 0 1694c-1775,66 -2970,564 -3568,1477 -612,928 -913,2888 -913,5889l0 11151c3584,0 6024,-596 7350,-1775 1330,-1195 2606,-3434 3835,-6752 1709,-4663 3453,-7899 5228,-9692 1775,-1791 4180,-2688 7234,-2688 2571,0 4810,715 6736,2158 1909,1442 2872,3352 2872,5726 0,1806 -564,3349 -1677,4628 -1129,1276 -2588,1925 -4362,1925 -3669,0 -5544,-1875 -5610,-5625 -35,-2622 -596,-3932 -1694,-3932 -1643,0 -3302,2207 -4976,6619 -1345,3600 -2289,5858 -2807,6786 -514,931 -1408,1960 -2668,3070 3267,665 5657,1562 7134,2706 1477,1129 3418,3666 5807,7598l4315 6987c2273,3719 4647,5660 7134,5858l0 1693 -17539 0 -13556 -22104 -2756 0 0 12646c0,2885 348,4876 1029,5974 699,1094 1843,1690 3452,1791l0 1693 -23199 0 0 -1693c1512,-32 2738,-449 3669,-1227 944,-796 1411,-2806 1411,-6042l0 -26880c0,-3055 -366,-5143 -1097,-6272 -712,-1129 -2042,-1693 -3983,-1693l0 -1694zm80845 38731c-5545,4910 -10540,7369 -14936,7369 -2606,0 -4764,-847 -6488,-2556 -1709,-1693 -2572,-3835 -2572,-6391 0,-3468 1493,-6588 4481,-9357 2986,-2772 9489,-6457 19515,-11050l0 -4566c0,-3418 -185,-5576 -565,-6469 -367,-882 -1079,-1662 -2126,-2324 -1044,-665 -2223,-997 -3518,-997 -2123,0 -3867,464 -5225,1411 -846,580 -1263,1261 -1263,2041 0,681 448,1509 1361,2522 1229,1395 1843,2737 1843,4032 0,1577 -583,2938 -1778,4048 -1175,1114 -2718,1678 -4628,1678 -2041,0 -3750,-614 -5127,-1844 -1377,-1226 -2073,-2671 -2073,-4311 0,-2343 928,-4566 2769,-6689 1860,-2107 4431,-3735 7733,-4879 3318,-1129 6755,-1694 10323,-1694 4312,0 7730,916 10238,2741 2522,1825 4146,3797 4895,5939 446,1361 681,4481 681,9361l0 17604c0,2057 81,3368 248,3901 166,530 398,928 730,1195 333,247 696,379 1110,379 863,0 1728,-580 2622,-1740l1461 1125c-1627,2409 -3302,4168 -5045,5247 -1725,1094 -3701,1643 -5905,1643 -2590,0 -4632,-615 -6093,-1828 -1458,-1226 -2339,-3070 -2668,-5541zm0 -3585l0 -15133c-3917,2308 -6840,4763 -8762,7385 -1264,1740 -1894,3518 -1894,5293 0,1493 533,2803 1612,3932 812,878 1941,1311 3399,1311 1628,0 3503,-928 5645,-2788zm71383 -35146l0 1694c-1527,0 -2703,414 -3534,1229 -828,828 -1245,2803 -1245,5939l0 25987c0,3402 367,5707 1079,6936 715,1210 1941,1891 3700,2023l0 1693 -23196 0 0 -1693c3186,-167 4779,-2889 4779,-8163l0 -10655c-1163,69 -1828,100 -1991,100 -483,0 -1245,-31 -2292,-100l-7664 20511 -18022 0 0 -1693c3535,-32 6040,-2058 7533,-6056l5312 -14189c-6905,-2158 -10355,-6021 -10355,-11615 0,-2854 913,-5293 2719,-7316 1809,-2010 3951,-3286 6391,-3816 2455,-549 6786,-816 13007,-816l23779 0zm-18417 3867c-1925,-449 -3537,-681 -4848,-681 -2753,0 -4844,831 -6271,2490 -1411,1659 -2123,3751 -2123,6272 0,3085 978,5544 2935,7369 1944,1825 4864,2737 8746,2737 348,0 881,-15 1561,-50l0 -18137zm61829 8579l0 -1693c3700,-1060 6256,-2057 7683,-2985 1426,-932 2671,-2340 3700,-4234 1044,-1890 1562,-3816 1562,-5757 0,-2687 -982,-4995 -2954,-6936 -1960,-1926 -4416,-2888 -7335,-2888 -4566,0 -8429,2408 -11615,7203l-1794 -631c2340,-5425 5328,-9508 8978,-12229 3650,-2738 7714,-4099 12195,-4099 4563,0 8348,1392 11317,4180 2970,2788 4447,6059 4447,9793 0,2421 -681,4779 -2057,7018 -1361,2258 -3519,4249 -6454,5974 3766,1841 6636,4114 8627,6820 1976,2703 2973,6106 2973,10188 0,6852 -2490,12694 -7451,17508 -4980,4810 -11649,7218 -19997,7218 -5575,0 -9639,-931 -12195,-2772 -1844,-1295 -2772,-2954 -2772,-4995 0,-1477 530,-2753 1608,-3801 1064,-1044 2293,-1577 3685,-1577 1079,0 2076,235 3020,680 514,251 2358,1678 5525,4234 3155,2571 6124,3847 8878,3847 2389,0 4446,-943 6174,-2834 1709,-1894 2571,-4300 2571,-7219 0,-4431 -1558,-8529 -4663,-12264 -3120,-3732 -7667,-6322 -13656,-7749zm49781 0l0 -1693c3700,-1060 6256,-2057 7683,-2985 1426,-932 2671,-2340 3700,-4234 1044,-1890 1561,-3816 1561,-5757 0,-2687 -981,-4995 -2953,-6936 -1960,-1926 -4416,-2888 -7335,-2888 -4566,0 -8429,2408 -11615,7203l-1794 -631c2339,-5425 5328,-9508 8978,-12229 3650,-2738 7714,-4099 12195,-4099 4563,0 8348,1392 11317,4180 2970,2788 4447,6059 4447,9793 0,2421 -681,4779 -2057,7018 -1361,2258 -3519,4249 -6454,5974 3766,1841 6636,4114 8627,6820 1975,2703 2973,6106 2973,10188 0,6852 -2490,12694 -7451,17508 -4980,4810 -11650,7218 -19997,7218 -5576,0 -9640,-931 -12195,-2772 -1844,-1295 -2772,-2954 -2772,-4995 0,-1477 530,-2753 1608,-3801 1063,-1044 2293,-1577 3685,-1577 1079,0 2076,235 3020,680 514,251 2358,1678 5525,4234 3155,2571 6124,3847 8877,3847 2390,0 4447,-943 6175,-2834 1709,-1894 2571,-4300 2571,-7219 0,-4431 -1558,-8529 -4663,-12264 -3120,-3732 -7667,-6322 -13656,-7749z"/>
   </g>
   <path class="fil4" d="M183840 714693c2659,571 4647,1468 5973,2725 1825,1741 2744,3867 2744,6379 0,1912 -599,3750 -1806,5497 -1211,1749 -2863,3026 -4967,3828 -2098,803 -5306,1208 -9627,1208l-18100 0 0 -1045 1430 0c1596,0 2737,-511 3430,-1527 436,-655 650,-2066 650,-4211l0 -24876c0,-2377 -270,-3873 -813,-4494 -733,-831 -1815,-1245 -3267,-1245l-1430 0 0 -1044 16563 0c3092,0 5566,223 7432,677 2832,687 4986,1885 6476,3613 1486,1731 2232,3712 2232,5964 0,1922 -580,3644 -1750,5168 -1169,1517 -2891,2650 -5170,3383zm-14823 -1574c696,135 1499,232 2386,298 900,69 1885,97 2957,97 2753,0 4832,-298 6215,-887 1380,-590 2443,-1499 3177,-2725 727,-1220 1094,-2553 1094,-4002 0,-2242 -919,-4145 -2744,-5732 -1828,-1574 -4493,-2367 -7993,-2367 -1884,0 -3584,204 -5092,621l0 14697zm0 18417c2192,514 4368,765 6503,765 3431,0 6049,-775 7846,-2311 1797,-1537 2697,-3440 2697,-5701 0,-1487 -417,-2929 -1258,-4299 -831,-1383 -2163,-2465 -3988,-3258 -1829,-791 -4099,-1189 -6796,-1189 -1169,0 -2163,19 -2994,60 -831,37 -1499,106 -2010,191l0 15742zm56532 -29326c0,-2302 -367,-3751 -1113,-4359 -744,-608 -2252,-919 -4513,-919l0 -1044 16582 0 0 1044c-2355,78 -3863,455 -4521,1142 -656,674 -985,2289 -985,4829l0 24412c0,2540 329,4155 985,4832 658,684 2166,1063 4521,1138l0 1045 -16582 0 0 -1045c2437,-75 3973,-464 4641,-1150 656,-693 985,-2299 985,-4820l0 -22092 -17743 22904c19,1640 126,2744 330,3302 191,552 655,997 1380,1317 727,317 2010,502 3857,539l0 1045 -16526 0 0 -1045c2358,-75 3866,-454 4525,-1138 655,-677 984,-2292 984,-4832l0 -24412c0,-2540 -329,-4155 -984,-4829 -659,-687 -2167,-1064 -4525,-1142l0 -1044 16526 0 0 1044c-2396,78 -3914,455 -4582,1142 -655,674 -985,2289 -985,4829l0 22151 17743 -22844zm18852 -6322l31775 0 0 1044c-2386,78 -3913,455 -4572,1132 -664,684 -994,2289 -994,4820l0 21298c0,4118 232,6670 706,7645 473,976 1991,1458 4569,1458l0 12061 -985 0c-561,-2782 -1477,-5033 -2725,-6736 -1257,-1709 -2678,-2841 -4271,-3421 -1596,-571 -3509,-859 -5729,-859l-9781 0c-4280,0 -7422,1160 -9432,3477 -2010,2311 -3208,4823 -3603,7539l-988 0 0 -12061c3026,-260 5482,-2085 7376,-5468 1894,-3393 3207,-7539 3932,-12465 734,-4930 1101,-8969 1101,-12129 0,-1885 -233,-3277 -706,-4165 -474,-890 -1032,-1449 -1681,-1671 -646,-232 -1982,-377 -3992,-455l0 -1044zm9279 2145c-473,11191 -1364,19047 -2687,23559 -1314,4516 -3092,8059 -5315,10649l14195 0c2522,0 4039,-222 4532,-665 504,-445 755,-1884 755,-4321l0 -29222 -11480 0zm35607 -57l0 15190 8467 0c2192,0 3653,-329 4387,-984 984,-872 1527,-2396 1643,-4582l1044 0 0 13393 -1044 0c-260,-1875 -533,-3082 -793,-3612 -339,-659 -897,-1179 -1672,-1556 -771,-379 -1960,-570 -3565,-570l-8467 0 0 12678c0,1699 79,2734 223,3101 157,367 417,668 793,881 376,220 1101,326 2154,326l6504 0c2164,0 3741,-153 4726,-451 975,-301 1922,-900 2822,-1791 1170,-1166 2368,-2935 3594,-5293l1160 0 -3315 9624 -29617 0 0 -1045 1361 0c909,0 1768,-222 2580,-655 609,-301 1026,-756 1239,-1364 220,-608 326,-1844 326,-3719l0 -24992c0,-2434 -241,-3933 -734,-4491 -686,-756 -1815,-1132 -3411,-1132l-1361 0 0 -1044 29627 0 407 8467 -1103 0c-396,-2042 -831,-3440 -1314,-4206 -483,-762 -1198,-1342 -2136,-1749 -752,-279 -2085,-424 -3992,-424l-10533 0zm44482 -2957c4976,0 9297,1894 12938,5682 3653,3788 5481,8514 5481,14187 0,5835 -1837,10677 -5519,14534 -3672,3854 -8128,5776 -13355,5776 -5275,0 -9712,-1884 -13305,-5641 -3597,-3760 -5394,-8620 -5394,-14594 0,-6096 2079,-11073 6225,-14930 3603,-3342 7914,-5014 12929,-5014zm-543 2029c-3418,0 -6174,1276 -8241,3826 -2581,3180 -3876,7827 -3876,13954 0,6272 1333,11104 4011,14488 2057,2568 4763,3853 8137,3853 3603,0 6570,-1411 8919,-4220 2348,-2823 3518,-7260 3518,-13328 0,-6582 -1295,-11489 -3876,-14716 -2066,-2571 -4929,-3857 -8592,-3857zm33177 16698l17799 0 0 -11075c0,-1951 -126,-3237 -367,-3854 -192,-464 -590,-869 -1198,-1208 -812,-454 -1671,-677 -2581,-677l-1361 0 0 -1044 16466 0 0 1044 -1364 0c-906,0 -1765,213 -2577,646 -609,301 -1026,756 -1239,1364 -223,608 -329,1857 -329,3729l0 24876c0,1941 125,3227 370,3844 191,474 577,882 1166,1217 831,455 1703,677 2609,677l1364 0 0 1045 -16466 0 0 -1045 1361 0c1577,0 2716,-464 3440,-1379 474,-612 706,-2061 706,-4359l0 -11712 -17799 0 0 11712c0,1941 125,3227 367,3844 185,474 580,882 1188,1217 812,455 1662,677 2572,677l1379 0 0 1045 -16466 0 0 -1045 1364 0c1593,0 2744,-464 3468,-1379 455,-612 678,-2061 678,-4359l0 -24876c0,-1951 -126,-3237 -367,-3854 -194,-464 -580,-869 -1170,-1208 -831,-454 -1699,-677 -2609,-677l-1364 0 0 -1044 16466 0 0 1044 -1379 0c-910,0 -1760,213 -2572,646 -589,301 -994,756 -1216,1364 -223,608 -339,1857 -339,3729l0 11075zm56494 7771l-14891 0 -2572 6021c-636,1486 -966,2609 -966,3342 0,580 279,1101 841,1546 552,436 1759,725 3603,859l0 1045 -12117 0 0 -1045c1602,-279 2637,-646 3111,-1100 966,-910 2029,-2753 3198,-5529l13522 -31637 956 0 13365 31976c1073,2571 2048,4233 2926,5005 881,765 2098,1188 3672,1285l0 1045 -15152 0 0 -1045c1527,-75 2562,-329 3101,-762 542,-435 803,-965 803,-1596 0,-831 -377,-2145 -1129,-3941l-2271 -5469zm-871 -2089l-6476 -15509 -6648 15509 13124 0zm44763 -23540l405 8467 -1044 0c-599,-2757 -1537,-4513 -2791,-5259 -1258,-743 -3490,-1120 -6698,-1120l-6457 0 0 15190 1527 0c4707,0 8156,301 10370,900 2205,590 4002,1728 5394,3421 1380,1681 2076,3710 2076,6077 0,2860 -1054,5363 -3171,7530 -2104,2154 -5747,3236 -10918,3236l-16234 0 0 -1045c2358,-75 3863,-454 4521,-1138 659,-677 985,-2292 985,-4832l0 -24412c0,-1951 -135,-3265 -414,-3951 -270,-687 -715,-1170 -1342,-1449 -630,-292 -1781,-474 -3462,-571l0 -1044 27253 0zm-16585 36131c1662,263 2957,398 3876,398 2320,0 4418,-775 6300,-2321 1875,-1546 2813,-3690 2813,-6434 0,-2832 -976,-4930 -2939,-6300 -1960,-1364 -4453,-2051 -7479,-2051 -840,0 -1699,78 -2571,223l0 16485zm47100 -34043l-11885 0 0 10775c0,10881 -938,17934 -2803,21182 -1876,3236 -4444,4861 -7730,4861 -1402,0 -2484,-348 -3239,-1035 -753,-696 -1129,-1496 -1129,-2405 0,-706 241,-1314 734,-1828 492,-512 1091,-762 1787,-762 580,0 1257,288 2010,859 850,630 1615,937 2302,937 1643,0 2976,-1360 4020,-4095 1031,-2737 1555,-7905 1555,-15532l0 -8049c0,-2531 -329,-4136 -997,-4820 -655,-677 -2183,-1054 -4569,-1132l0 -1044 30903 0 0 1044c-2358,78 -3866,455 -4521,1142 -659,674 -988,2289 -988,4829l0 24412c0,2540 329,4155 988,4832 655,684 2163,1063 4521,1138l0 1045 -16466 0 0 -1045c2358,-75 3864,-454 4522,-1138 659,-677 985,-2292 985,-4832l0 -29339zm31957 17859l-7887 0 0 11712c0,2280 292,3807 881,4578 580,775 1835,1160 3751,1160l878 0 0 1045 -16466 0 0 -1045 1160 0c1063,0 1941,-191 2647,-570 696,-377 1160,-859 1373,-1468 220,-599 326,-1837 326,-3700l0 -24876c0,-1825 -116,-3073 -357,-3729 -232,-668 -696,-1160 -1389,-1499 -687,-338 -1653,-511 -2882,-511l-878 0 0 -1044 16466 0 0 1044 -878 0c-1374,0 -2349,185 -2938,552 -581,367 -1007,809 -1286,1333 -270,511 -408,1797 -408,3854l0 11075 7887 0c260,-5547 2270,-10050 6020,-13518 3741,-3472 8128,-5209 13152,-5209 4832,0 9103,1866 12822,5585 3723,3719 5579,8486 5579,14303 0,5575 -1778,10348 -5334,14330 -3559,3973 -8081,5961 -13550,5961 -3546,0 -6698,-831 -9432,-2493 -2735,-1662 -4949,-3970 -6629,-6936 -1672,-2957 -2550,-6272 -2628,-9934zm18642 -18787c-3653,0 -6591,1518 -8815,4550 -2223,3036 -3333,7441 -3333,13230 0,5403 1044,9809 3120,13221 2089,3411 5102,5120 9056,5120 3845,0 6871,-1495 9085,-4493 2210,-2995 3324,-7344 3324,-13055 0,-5788 -1045,-10329 -3124,-13625 -2085,-3295 -5189,-4948 -9313,-4948zm23490 -1160l31775 0 0 1044c-2386,78 -3913,455 -4572,1132 -664,684 -994,2289 -994,4820l0 21298c0,4118 232,6670 706,7645 473,976 1991,1458 4569,1458l0 12061 -985 0c-561,-2782 -1477,-5033 -2725,-6736 -1257,-1709 -2678,-2841 -4271,-3421 -1596,-571 -3509,-859 -5729,-859l-9780 0c-4281,0 -7423,1160 -9433,3477 -2010,2311 -3208,4823 -3603,7539l-988 0 0 -12061c3026,-260 5482,-2085 7376,-5468 1894,-3393 3208,-7539 3932,-12465 734,-4930 1101,-8969 1101,-12129 0,-1885 -232,-3277 -706,-4165 -473,-890 -1032,-1449 -1681,-1671 -646,-232 -1982,-377 -3992,-455l0 -1044zm9279 2145c-473,11191 -1364,19047 -2687,23559 -1314,4516 -3092,8059 -5315,10649l14195 0c2522,0 4039,-222 4532,-665 505,-445 755,-1884 755,-4321l0 -29222 -11480 0zm35607 -57l0 15190 8467 0c2192,0 3653,-329 4387,-984 985,-872 1527,-2396 1643,-4582l1044 0 0 13393 -1044 0c-260,-1875 -533,-3082 -793,-3612 -339,-659 -897,-1179 -1672,-1556 -771,-379 -1960,-570 -3565,-570l-8467 0 0 12678c0,1699 79,2734 223,3101 157,367 417,668 793,881 377,220 1101,326 2155,326l6503 0c2164,0 3741,-153 4726,-451 975,-301 1922,-900 2822,-1791 1170,-1166 2368,-2935 3594,-5293l1160 0 -3315 9624 -29617 0 0 -1045 1361 0c909,0 1768,-222 2580,-655 609,-301 1026,-756 1239,-1364 220,-608 326,-1844 326,-3719l0 -24992c0,-2434 -241,-3933 -734,-4491 -686,-756 -1815,-1132 -3411,-1132l-1361 0 0 -1044 29627 0 407 8467 -1103 0c-395,-2042 -831,-3440 -1314,-4206 -483,-762 -1198,-1342 -2136,-1749 -752,-279 -2085,-424 -3992,-424l-10533 0zm35244 15770l17798 0 0 -11075c0,-1951 -125,-3237 -367,-3854 -191,-464 -589,-869 -1197,-1208 -813,-454 -1672,-677 -2581,-677l-1361 0 0 -1044 16466 0 0 1044 -1364 0c-906,0 -1766,213 -2578,646 -608,301 -1025,756 -1238,1364 -223,608 -330,1857 -330,3729l0 24876c0,1941 126,3227 370,3844 192,474 577,882 1167,1217 831,455 1703,677 2609,677l1364 0 0 1045 -16466 0 0 -1045 1361 0c1577,0 2715,-464 3440,-1379 473,-612 705,-2061 705,-4359l0 -11712 -17798 0 0 11712c0,1941 125,3227 366,3844 185,474 581,882 1189,1217 812,455 1662,677 2571,677l1380 0 0 1045 -16466 0 0 -1045 1364 0c1593,0 2744,-464 3468,-1379 455,-612 678,-2061 678,-4359l0 -24876c0,-1951 -126,-3237 -367,-3854 -195,-464 -580,-869 -1170,-1208 -831,-454 -1700,-677 -2609,-677l-1364 0 0 -1044 16466 0 0 1044 -1380 0c-909,0 -1759,213 -2571,646 -590,301 -994,756 -1217,1364 -222,608 -338,1857 -338,3729l0 11075zm59730 -11536c0,-2302 -367,-3751 -1113,-4359 -743,-608 -2251,-919 -4512,-919l0 -1044 16582 0 0 1044c-2355,78 -3864,455 -4522,1142 -655,674 -985,2289 -985,4829l0 24412c0,2540 330,4155 985,4832 658,684 2167,1063 4522,1138l0 1045 -16582 0 0 -1045c2436,-75 3973,-464 4641,-1150 655,-693 984,-2299 984,-4820l0 -22092 -17742 22904c19,1640 125,2744 329,3302 191,552 656,997 1380,1317 727,317 2010,502 3857,539l0 1045 -16526 0 0 -1045c2358,-75 3867,-454 4525,-1138 656,-677 985,-2292 985,-4832l0 -24412c0,-2540 -329,-4155 -985,-4829 -658,-687 -2167,-1064 -4525,-1142l0 -1044 16526 0 0 1044c-2396,78 -3913,455 -4581,1142 -656,674 -985,2289 -985,4829l0 22151 17742 -22844zm24187 -4234l0 15190 8466 0c2192,0 3654,-329 4387,-984 985,-872 1528,-2396 1644,-4582l1044 0 0 13393 -1044 0c-261,-1875 -534,-3082 -794,-3612 -338,-659 -897,-1179 -1671,-1556 -772,-379 -1960,-570 -3566,-570l-8466 0 0 12678c0,1699 78,2734 222,3101 157,367 417,668 794,881 376,220 1100,326 2154,326l6504 0c2163,0 3741,-153 4725,-451 976,-301 1923,-900 2823,-1791 1169,-1166 2367,-2935 3593,-5293l1160 0 -3314 9624 -29618 0 0 -1045 1361 0c910,0 1769,-222 2581,-655 608,-301 1025,-756 1239,-1364 219,-608 326,-1844 326,-3719l0 -24992c0,-2434 -242,-3933 -734,-4491 -687,-756 -1816,-1132 -3412,-1132l-1361 0 0 -1044 29627 0 408 8467 -1104 0c-395,-2042 -831,-3440 -1314,-4206 -483,-762 -1198,-1342 -2135,-1749 -753,-279 -2086,-424 -3992,-424l-10533 0z"/>
   <g id="_704278162448">
    <path class="fil4" d="M1057850 1339828l0 1791c-1709,0 -3101,316 -4180,931 -1063,611 -2091,1756 -3054,3449 -646,1129 -1674,3851 -3070,8131l-18319 53199 -1957 0 -15036 -42214 -14851 42214 -1775 0 -19546 -54757c-1461,-4117 -2389,-6538 -2772,-7285 -649,-1244 -1527,-2157 -2656,-2756 -1110,-615 -2621,-912 -4547,-912l0 -1791 24359 0 0 1791 -1176 0c-1709,0 -3019,398 -3932,1179 -912,780 -1361,1724 -1361,2822 0,1144 712,3766 2139,7880l12995 37021 10965 -31461 -1991 -5544 -1558 -4447c-681,-1643 -1443,-3070 -2274,-4315 -432,-611 -947,-1144 -1558,-1574 -816,-583 -1628,-1013 -2440,-1264 -614,-197 -1593,-297 -2922,-297l0 -1791 25638 0 0 1791 -1759 0c-1810,0 -3136,398 -3983,1179 -846,780 -1260,1840 -1260,3186 0,1658 730,4578 2188,8727l12663 35826 12527 -36341c1427,-4048 2142,-6851 2142,-8413 0,-746 -232,-1458 -696,-2107 -483,-646 -1063,-1110 -1778,-1377 -1242,-448 -2835,-680 -4810,-680l0 -1791 19645 0zm3422 38232c-35,6588 1574,11746 4810,15497 3236,3735 7052,5610 11433,5610 2904,0 5444,-797 7601,-2390 2158,-1577 3964,-4349 5425,-8266l1493 982c-681,4478 -2653,8545 -5924,12179 -3267,3635 -7366,5460 -12280,5460 -5343,0 -9921,-2076 -13722,-6240 -3800,-4165 -5707,-9756 -5707,-16777 0,-7598 1957,-13540 5858,-17786 3898,-4265 8793,-6391 14685,-6391 4976,0 9075,1643 12279,4929 3202,3287 4811,7683 4811,13193l-30762 0zm0 -2788l20608 0c-166,-2854 -499,-4864 -1013,-6024 -812,-1809 -2026,-3236 -3634,-4265 -1593,-1044 -3268,-1561 -5027,-1561 -2690,0 -5096,1047 -7218,3139 -2123,2088 -3353,4992 -3716,8711zm48968 -6275c4296,-6039 8944,-9059 13920,-9059 4563,0 8545,1960 11948,5858 3402,3901 5095,9244 5095,16014 0,7896 -2621,14268 -7864,19097 -4516,4149 -9543,6225 -15087,6225 -2587,0 -5208,-464 -7880,-1411 -2687,-947 -5409,-2374 -8197,-4265l0 -45999c0,-5042 -116,-8147 -367,-9307 -248,-1179 -630,-1960 -1144,-2390 -530,-414 -1176,-630 -1957,-630 -913,0 -2042,263 -3418,778l-681 -1791 13440 -5475 2192 0 0 32355zm0 3089l0 26567c1659,1608 3368,2837 5127,3665 1759,812 3566,1230 5425,1230 2938,0 5692,-1612 8232,-4845 2537,-3236 3816,-7934 3816,-14105 0,-5692 -1279,-10057 -3816,-13111 -2540,-3051 -5428,-4578 -8680,-4578 -1709,0 -3434,429 -5143,1311 -1295,646 -2954,1941 -4961,3866zm48486 -12148c1493,0 2753,533 3801,1577 1044,1044 1574,2305 1574,3801 0,1477 -530,2753 -1574,3800 -1048,1045 -2308,1575 -3801,1575 -1477,0 -2756,-530 -3801,-1575 -1044,-1047 -1577,-2323 -1577,-3800 0,-1496 533,-2757 1577,-3801 1045,-1044 2324,-1577 3801,-1577zm-116 36441c1508,0 2788,530 3832,1593 1044,1060 1562,2324 1562,3801 0,1492 -533,2753 -1593,3797 -1063,1048 -2324,1562 -3801,1562 -1496,0 -2756,-514 -3801,-1562 -1044,-1044 -1558,-2305 -1558,-3797 0,-1477 514,-2741 1558,-3801 1045,-1063 2305,-1593 3801,-1593z"/>
    <path class="fil5" d="M1243186 1339828l0 1690c-2390,398 -4528,1678 -6404,3867 -1360,1627 -3386,5459 -6089,11502l-22603 50442 -1609 0 -22502 -52518c-2719,-6356 -4544,-10088 -5457,-11182 -931,-1114 -2671,-1810 -5227,-2111l0 -1690 31461 0 0 1690 -1063 0c-2853,0 -4813,367 -5842,1098 -746,480 -1110,1210 -1110,2173 0,596 116,1295 380,2107 266,797 1148,2954 2640,6472l14055 32788 12960 -29188c1574,-3584 2556,-5973 2904,-7184 364,-1213 545,-2242 545,-3104 0,-979 -263,-1841 -777,-2606 -533,-746 -1280,-1327 -2292,-1725 -1393,-549 -3233,-831 -5541,-831l0 -1690 21571 0zm11634 -1496c2107,0 3882,731 5343,2208 1458,1477 2189,3252 2189,5328 0,2091 -731,3850 -2208,5309 -1474,1461 -3252,2191 -5324,2191 -2092,0 -3851,-730 -5309,-2191 -1462,-1459 -2192,-3218 -2192,-5309 0,-2076 730,-3851 2192,-5328 1458,-1477 3217,-2208 5309,-2208zm6836 22004l0 36043c0,3236 382,5309 1129,6222 762,896 2238,1411 4446,1542l0 1694 -24792 0 0 -1694c2058,-65 3585,-646 4582,-1775 661,-746 994,-2753 994,-5989l0 -26585c0,-3252 -380,-5309 -1145,-6222 -762,-896 -2239,-1411 -4431,-1542l0 -1694 19217 0zm54045 -20508l0 52368c0,3503 101,5575 298,6225 248,1059 746,1856 1477,2370 715,514 1991,831 3801,963l0 1693 -19217 3685 0 -7203c-2289,2788 -4330,4697 -6124,5691 -1790,1013 -3816,1512 -6071,1512 -5776,0 -10354,-2590 -13706,-7768 -2706,-4198 -4067,-9357 -4067,-15481 0,-4879 846,-9260 2524,-13127 1674,-3866 3964,-6785 6902,-8761 2919,-1972 6055,-2954 9407,-2954 2158,0 4083,417 5761,1264 1674,847 3465,2305 5374,4412l0 -13838c0,-3434 -150,-5510 -432,-6222 -399,-931 -979,-1612 -1756,-2060 -781,-445 -2242,-681 -4381,-681l0 -2088 20210 0zm-13641 30863c-2373,-4579 -5293,-6871 -8726,-6871 -1195,0 -2177,317 -2954,963 -1179,1013 -2158,2772 -2923,5293 -746,2524 -1126,6391 -1126,11584 0,5726 414,9956 1261,12709 828,2756 1972,4732 3418,5958 746,615 1759,928 3035,928 2838,0 5510,-2239 8015,-6701l0 -23863zm61926 23349l1512 1160c-2142,4033 -4814,7018 -8015,8978 -3202,1975 -6604,2954 -10204,2954 -6074,0 -10919,-2274 -14554,-6836 -3634,-4566 -5459,-10057 -5459,-16463 0,-6171 1659,-11615 4961,-16294 3998,-5660 9492,-8498 16494,-8498 4713,0 8445,1179 11217,3553 2772,2355 4164,4995 4164,7899 0,1841 -564,3318 -1674,4431 -1129,1094 -2590,1640 -4397,1640 -1925,0 -3502,-630 -4747,-1891 -1261,-1261 -2023,-3518 -2324,-6751 -182,-2042 -662,-3468 -1411,-4284 -746,-812 -1624,-1210 -2621,-1210 -1559,0 -2885,831 -3999,2471 -1674,2490 -2521,6306 -2521,11433 0,4265 681,8347 2042,12248 1376,3898 3236,6786 5606,8693 1794,1395 3901,2091 6341,2091 1593,0 3101,-363 4528,-1110 1427,-746 3120,-2141 5061,-4214zm28608 -34999c3932,0 7601,1013 11004,3054 3383,2042 5973,4946 7733,8696 1759,3750 2637,7849 2637,12311 0,6441 -1628,11832 -4895,16162 -3948,5246 -9392,7868 -16328,7868 -6821,0 -12079,-2390 -15764,-7187 -3685,-4779 -5525,-10336 -5525,-16642 0,-6504 1875,-12164 5641,-17009 3766,-4829 8928,-7253 15497,-7253zm217 3387c-1644,0 -3055,630 -4231,1875 -1179,1245 -1960,3700 -2323,7366 -383,3685 -565,8780 -565,15318 0,3469 232,6702 681,9725 348,2289 1113,4048 2273,5243 1160,1194 2490,1790 3967,1790 1458,0 2672,-398 3634,-1210 1261,-1095 2089,-2638 2522,-4613 646,-3070 962,-9291 962,-18652 0,-5494 -298,-9276 -912,-11333 -615,-2057 -1527,-3552 -2722,-4496 -831,-681 -1925,-1013 -3286,-1013zm46961 -2092l0 6059c2487,-2738 4795,-4632 6918,-5726 2126,-1079 4446,-1628 6971,-1628 2919,0 5359,681 7350,2042 1976,1360 3484,3436 4563,6224 2590,-2922 5095,-5030 7466,-6322 2390,-1295 4879,-1944 7485,-1944 3136,0 5657,715 7517,2158 1875,1445 3170,3286 3901,5509 727,2223 1094,5757 1094,10637l0 18636c0,3499 314,5673 944,6504 615,846 1944,1395 3935,1658l0 1694 -23496 0 0 -1694c1856,-166 3217,-878 4098,-2138 580,-881 878,-2888 878,-6024l0 -19564c0,-4068 -166,-6639 -479,-7749 -333,-1098 -847,-1910 -1546,-2458 -697,-530 -1509,-797 -2456,-797 -1392,0 -2803,517 -4230,1527 -1427,1029 -2872,2556 -4330,4597l0 24444c0,3267 263,5324 812,6171 746,1195 2173,1860 4264,1991l0 1694 -23496 0 0 -1694c1245,-65 2239,-379 2969,-944 715,-564 1214,-1244 1446,-2041 248,-796 364,-2524 364,-5177l0 -19599c0,-4130 -166,-6720 -480,-7748 -332,-1045 -865,-1860 -1627,-2440 -762,-580 -1578,-878 -2456,-878 -1295,0 -2474,348 -3534,1028 -1527,1013 -3136,2738 -4845,5193l0 24444c0,3202 314,5324 944,6337 615,1029 1941,1628 3933,1825l0 1694 -23397 0 0 -1694c1891,-197 3252,-812 4049,-1840 548,-715 831,-2823 831,-6322l0 -25789c0,-3465 -317,-5641 -947,-6488 -631,-862 -1941,-1408 -3933,-1674l0 -1694 18520 0zm73193 30565c2274,0 4199,796 5776,2389 1578,1593 2355,3503 2355,5742 0,2258 -796,4167 -2389,5742 -1593,1577 -3500,2358 -5742,2358 -2255,0 -4164,-781 -5742,-2358 -1574,-1575 -2355,-3484 -2355,-5742 0,-2239 781,-4149 2355,-5742 1578,-1593 3487,-2389 5742,-2389zm59706 -30565l0 35645c0,3484 317,5657 962,6519 650,866 1960,1411 3917,1643l0 1694 -18517 0 0 -6074c-2176,2590 -4349,4465 -6522,5625 -2173,1164 -4597,1744 -7300,1744 -2556,0 -4830,-781 -6840,-2358 -1991,-1575 -3317,-3418 -3998,-5510 -680,-2107 -1028,-5789 -1028,-11032l0 -18040c0,-3465 -317,-5641 -947,-6488 -631,-862 -1941,-1408 -3933,-1674l0 -1694 18520 0 0 31082c0,3233 148,5325 465,6272 297,944 796,1659 1461,2138 661,483 1427,731 2305,731 1163,0 2207,-313 3154,-928 1292,-847 2854,-2540 4663,-5111l0 -24328c0,-3465 -317,-5641 -947,-6488 -630,-862 -1941,-1408 -3932,-1674l0 -1694 18517 0zm48667 45501l-39523 0 0 -1079 25005 -41433 -7300 0c-3155,0 -5410,282 -6771,846 -1361,565 -2474,1477 -3317,2719 -831,1245 -1709,3487 -2625,6689l-1709 0 0 -13243 38232 0 0 1311 -24707 41004 3104 0c6206,0 10687,-878 13440,-2656 2753,-1759 4814,-4993 6206,-9690l1361 0 -1396 15532z"/>
   </g>
   <path class="fil5" d="M1656889 336904l113698 0 0 35843 -3782 0c-1229,-6636 -3286,-12045 -6209,-16228 -2919,-4180 -6372,-7068 -10385,-8661 -4017,-1593 -10189,-2390 -18452,-2390l-24095 0 0 51374 17422 0c18784,0 32425,3318 40923,9922 8495,6638 12744,15466 12744,26516 0,7535 -2158,14008 -6473,19483 -4315,5444 -9724,9492 -16227,12179 -6507,2656 -15999,3983 -28511,3983l-70653 0 0 -3387c8163,-132 13374,-1226 15663,-3318 2290,-2091 3453,-6604 3453,-13606l0 -90402c0,-7501 -1163,-12380 -3487,-14603 -2324,-2224 -7532,-3318 -15629,-3318l0 -3387zm50775 68499l0 39825c0,6274 862,10721 2621,13276 1760,2556 4980,3848 9725,3848 7566,0 13273,-2552 17124,-7698 3851,-5112 5776,-11515 5776,-19182 0,-7400 -1759,-13606 -5246,-18617 -3484,-5046 -7400,-8197 -11715,-9492 -4281,-1295 -10386,-1960 -18285,-1960zm139023 63522l0 -3387c5838,0 8761,-4446 8761,-13340l0 -44804 -26087 44804c66,8696 3055,13143 8962,13340l0 3387 -46397 0 0 -3387c3685,0 6272,-1060 7833,-3151 1559,-2092 2324,-5742 2324,-10985l0 -56354c0,-9159 -3387,-13738 -10157,-13738l0 -3386 46397 0 0 3386c-3421,132 -5776,1095 -7036,2954 -1295,1825 -1926,5410 -1926,10784l0 44604 26087 -45199c-69,-4911 -765,-8329 -2126,-10254 -1392,-1926 -3584,-2889 -6635,-2889l0 -3386 46394 0 0 3386c-3519,66 -6106,963 -7799,2656 -1693,1725 -2556,5011 -2556,9888l0 57946c0,5475 762,9125 2290,10985 1527,1825 4214,2753 8065,2753l0 3387 -46394 0zm60169 -91001l46395 0 0 3386c-3550,132 -5940,1129 -7134,2954 -1230,1860 -1825,5773 -1825,11782l0 22301c7168,0 12044,-1194 14700,-3549 2656,-2390 5212,-6871 7667,-13509 3418,-9326 6902,-15799 10452,-19383 3553,-3584 8363,-5375 14472,-5375 5142,0 9623,1427 13474,4315 3816,2888 5742,6705 5742,11449 0,3619 -1129,6705 -3352,9260 -2258,2556 -5178,3848 -8730,3848 -7335,0 -11085,-3747 -11217,-11248 -66,-5243 -1195,-7868 -3384,-7868 -3286,0 -6607,4415 -9956,13242 -2690,7203 -4581,11716 -5610,13575 -1028,1857 -2822,3917 -5343,6140 6538,1327 11317,3120 14271,5410 2954,2254 6836,7334 11615,15199l8630 13973c4546,7432 9291,11314 14271,11712l0 3387 -35081 0 -27115 -44206 -5506 0 0 25287c0,5777 696,9759 2057,11948 1392,2192 3681,3387 6902,3584l0 3387 -46395 0 0 -3387c3020,-66 5476,-894 7332,-2455 1894,-1593 2822,-5607 2822,-12079l0 -53764c0,-6105 -731,-10288 -2189,-12546 -1430,-2255 -4082,-3384 -7965,-3384l0 -3386zm114928 0l37833 0 23199 56419 23129 -56419 36906 0 0 3386c-3550,198 -6040,1261 -7533,3221 -1495,1922 -2223,5409 -2223,10420l0 56648c0,5178 696,8731 2089,10687 1361,1992 3916,3055 7667,3252l0 3387 -47988 0 0 -3387c4049,-66 6868,-1160 8495,-3252 1625,-2088 2456,-5641 2456,-10687l0 -58407 -31659 75733 -4946 0 -30699 -74639 0 58709c0,4315 731,7435 2157,9357 1427,1926 4215,2989 8398,3186l0 3387 -27281 0 0 -3387c3618,-132 6174,-1160 7698,-3117 1496,-1925 2258,-5277 2258,-10025l0 -58044c0,-4578 -731,-7864 -2224,-9821 -1492,-1960 -4048,-3023 -7732,-3221l0 -3386zm176987 94883l-29370 -67602c-4415,-10288 -7667,-16626 -9758,-18984 -2123,-2355 -4647,-3982 -7633,-4911l0 -3386 48386 0 0 3386c-3152,132 -5410,762 -6701,1860 -1296,1126 -1926,2455 -1926,4048 0,2456 1593,7366 4845,14701l15566 35877 10618 -27646c3816,-9890 5710,-16792 5710,-20677 0,-2421 -796,-4346 -2358,-5808 -1593,-1426 -4412,-2223 -8429,-2355l0 -3386 30201 0 0 3386c-2988,333 -5409,1493 -7303,3484 -1891,1992 -5011,8796 -9423,20411l-25886 67505c-6539,16823 -11383,27178 -14569,31063 -4481,5441 -10057,8162 -16793,8162 -5378,0 -9758,-1558 -13076,-4647 -3352,-3085 -5011,-6801 -5011,-11151 0,-3782 1160,-6902 3449,-9357 2324,-2490 5146,-3716 8530,-3716 3252,0 5873,1029 7864,3117 1960,2092 2989,5343 3055,9724 66,2490 332,4083 796,4779 565,731 1327,1098 2324,1098 1527,0 3186,-932 4945,-2823 2587,-2753 5607,-8993 9125,-18752l2822 -7400zm93058 -13243l0 34052c0,4713 364,7931 1126,9624 731,1693 1894,2954 3453,3719 1558,796 4612,1195 9159,1195l0 3383 -52170 0 0 -3383c4114,-135 7169,-1264 9160,-3453 1326,-1493 1991,-5409 1991,-11681l0 -96178c0,-6504 -762,-10621 -2289,-12446 -1527,-1790 -4481,-2819 -8862,-3086l0 -3386 38432 0 0 11947c3186,-4644 6404,-8031 9721,-10088 4714,-2954 9859,-4446 15435,-4446 6670,0 12744,2091 18219,6306 5475,4214 9624,10022 12477,17422 2854,7401 4284,15366 4284,23930 0,9191 -1462,17588 -4415,25186 -2954,7602 -7235,13375 -12845,17357 -5575,3986 -11812,5977 -18683,5977 -4979,0 -9658,-1098 -14004,-3321 -3221,-1659 -6639,-4547 -10189,-8630zm0 -9821c5576,7865 11550,11813 17922,11813 3515,0 6403,-1825 8661,-5507 3383,-5444 5077,-15764 5077,-30997 0,-15632 -1860,-26319 -5541,-32061 -2490,-3816 -5777,-5707 -9957,-5707 -6538,0 -11947,4713 -16162,14136l0 48323zm119841 -29969c11252,2854 18386,6504 21440,10954 3020,4446 4547,9125 4547,14004 0,7532 -3186,13873 -9558,19050 -6341,5143 -15466,7733 -27347,7733 -16263,0 -27978,-6306 -35178,-18953l3020 -1759c7466,7435 15064,11151 22797,11151 5776,0 10389,-1756 13807,-5309 3453,-3518 5177,-8263 5177,-14237 0,-11282 -6704,-17325 -20110,-18087l0 -6372c11813,0 17721,-5939 17721,-17789 0,-5510 -1361,-9856 -4048,-13042 -2688,-3221 -6372,-4814 -10985,-4814 -9825,0 -16096,7169 -18818,21506l-3782 0 1392 -28473 3785 0c1095,2656 2456,3982 4080,3982 665,0 2258,-332 4779,-997 7071,-1991 13242,-2985 18485,-2985 8897,0 16162,2025 21772,6074 5607,4079 8429,9558 8429,16425 0,11019 -7134,18319 -21405,21938zm92858 49151l0 -3387c5839,0 8761,-4446 8761,-13340l0 -44804 -26087 44804c66,8696 3055,13143 8963,13340l0 3387 -46398 0 0 -3387c3685,0 6272,-1060 7834,-3151 1558,-2092 2323,-5742 2323,-10985l0 -56354c0,-9159 -3387,-13738 -10157,-13738l0 -3386 46398 0 0 3386c-3422,132 -5777,1095 -7037,2954 -1295,1825 -1926,5410 -1926,10784l0 44604 26087 -45199c-69,-4911 -765,-8329 -2126,-10254 -1392,-1926 -3584,-2889 -6635,-2889l0 -3386 46394 0 0 3386c-3518,66 -6105,963 -7799,2656 -1693,1725 -2555,5011 -2555,9888l0 57946c0,5475 762,9125 2289,10985 1527,1825 4214,2753 8065,2753l0 3387 -46394 0zm59969 0l0 -3387c3750,0 6372,-959 7899,-2885 1493,-1925 2258,-5610 2258,-11054l0 -55952c0,-5807 -731,-9658 -2227,-11514 -1492,-1894 -4114,-2823 -7930,-2823l0 -3386 46397 0 0 3386c-3286,132 -5610,994 -6936,2556 -1361,1593 -2026,5177 -2026,10784l0 23895 26087 0 0 -23895c0,-4613 -499,-7996 -1461,-10119 -963,-2158 -3418,-3221 -7301,-3221l0 -3386 46197 0 0 3386c-3750,0 -6372,929 -7899,2823 -1496,1891 -2258,5077 -2258,9523l0 57943c0,5742 731,9493 2223,11186 1493,1693 4115,2621 7934,2753l0 3387 -46197 0 0 -3387c3252,-66 5507,-828 6802,-2320 1295,-1496 1960,-5146 1960,-11020l0 -27281 -26087 0 0 26682c0,5811 665,9593 2026,11352 1326,1725 3650,2587 6936,2587l0 3387 -46397 0zm-467708 160791l0 36639c0,7203 433,11715 1326,13575 866,1856 2424,3349 4682,4478 2223,1097 6337,1659 12311,1659l0 3386 -67103 0 0 -3386c6106,0 10254,-562 12412,-1725 2188,-1129 3716,-2622 4578,-4447 897,-1825 1329,-6337 1329,-13540l0 -85824c0,-7200 -432,-11712 -1329,-13572 -862,-1859 -2390,-3352 -4613,-4481 -2223,-1094 -6337,-1659 -12377,-1659l0 -3386 57545 0c18950,0 32556,3386 40788,10122 8262,6770 12380,15203 12380,25322 0,8598 -2656,15930 -8000,22038 -5309,6106 -12643,10254 -22004,12478 -6271,1561 -16924,2323 -31925,2323zm0 -64717l0 57150c2157,132 3785,198 4879,198 7931,0 14070,-2355 18351,-7068 4283,-4713 6441,-12013 6441,-21904 0,-9821 -2158,-16989 -6441,-21536 -4281,-4547 -10718,-6840 -19213,-6840l-4017 0zm116388 128336l-29370 -67601c-4415,-10289 -7667,-16626 -9758,-18984 -2123,-2355 -4648,-3983 -7633,-4911l0 -3387 48386 0 0 3387c-3152,132 -5410,762 -6702,1859 -1295,1126 -1925,2456 -1925,4049 0,2455 1593,7366 4845,14700l15566 35877 10618 -27645c3816,-9890 5710,-16792 5710,-20678 0,-2420 -796,-4346 -2358,-5807 -1593,-1427 -4412,-2223 -8429,-2355l0 -3387 30201 0 0 3387c-2989,332 -5409,1493 -7303,3484 -1891,1991 -5011,8796 -9424,20411l-25886 67504c-6538,16824 -11383,27178 -14569,31063 -4481,5441 -10056,8163 -16792,8163 -5378,0 -9758,-1559 -13076,-4647 -3352,-3086 -5011,-6802 -5011,-11151 0,-3782 1160,-6902 3449,-9358 2324,-2489 5146,-3715 8530,-3715 3252,0 5873,1028 7864,3117 1960,2091 2989,5343 3055,9724 65,2489 332,4082 796,4779 565,730 1327,1097 2324,1097 1527,0 3186,-931 4945,-2822 2587,-2753 5607,-8994 9125,-18752l2822 -7401zm125711 -27479l3023 2324c-4283,8065 -9627,14039 -16030,17956 -6406,3948 -13208,5907 -20411,5907 -12145,0 -21838,-4547 -29106,-13675 -7266,-9125 -10916,-20110 -10916,-32923 0,-12345 3318,-23230 9922,-32587 7999,-11317 18984,-16993 32988,-16993 9423,0 16893,2355 22434,7103 5544,4713 8332,9987 8332,15795 0,3684 -1129,6638 -3353,8862 -2257,2192 -5177,3286 -8795,3286 -3851,0 -7003,-1261 -9493,-3785 -2521,-2521 -4048,-7034 -4644,-13506 -367,-4083 -1329,-6936 -2822,-8561 -1493,-1627 -3252,-2424 -5243,-2424 -3120,0 -5776,1659 -7999,4946 -3353,4976 -5043,12612 -5043,22866 0,8529 1358,16692 4080,24490 2756,7799 6472,13575 11217,17392 3584,2787 7802,4180 12678,4180 3186,0 6205,-728 9062,-2224 2854,-1492 6237,-4280 10119,-8429zm63921 23597l0 -3386c3217,-66 5904,-894 7996,-2456 2092,-1558 3155,-5042 3155,-10486l0 -68301 -25689 0 0 39728c0,14302 -696,24158 -2123,29602 -1427,5443 -4183,9623 -8266,12511 -4080,2920 -8429,4381 -13042,4381 -5177,0 -9326,-1593 -12477,-4744 -3155,-3155 -4713,-6770 -4713,-10853 0,-3983 1160,-7203 3452,-9724 2290,-2490 5243,-3751 8859,-3751 6936,0 10389,4249 10389,12744 0,3851 731,5773 2223,5773 2854,0 5046,-2355 6604,-7099 1562,-4748 2324,-14406 2324,-28941l0 -26485c0,-6071 -797,-10219 -2424,-12477 -1624,-2223 -4381,-3453 -8329,-3650l0 -3387 80249 0 0 3387c-6507,132 -9759,4315 -9759,12543l0 58345c0,4578 696,7899 2057,9991 1361,2088 3917,3217 7702,3349l0 3386 -48188 0zm112305 -13540c-11085,9824 -21072,14735 -29868,14735 -5212,0 -9524,-1693 -12976,-5111 -3418,-3384 -5143,-7667 -5143,-12776 0,-6936 2985,-13176 8959,-18717 5974,-5544 18984,-12910 39028,-22105l0 -9125c0,-6839 -363,-11151 -1129,-12944 -730,-1760 -2157,-3318 -4245,-4648 -2092,-1326 -4450,-1991 -7037,-1991 -4249,0 -7733,932 -10455,2822 -1693,1161 -2521,2522 -2521,4083 0,1361 897,3020 2722,5043 2455,2787 3681,5478 3681,8065 0,3154 -1160,5873 -3550,8100 -2355,2223 -5443,3349 -9260,3349 -4082,0 -7500,-1226 -10254,-3682 -2753,-2455 -4148,-5343 -4148,-8629 0,-4679 1859,-9126 5541,-13375 3719,-4214 8861,-7466 15465,-9758 6639,-2255 13509,-3384 20643,-3384 8630,0 15466,1825 20477,5475 5046,3650 8297,7601 9790,11882 897,2722 1361,8962 1361,18717l0 35212c0,4115 166,6736 499,7799 332,1063 796,1860 1458,2390 665,498 1395,762 2226,762 1725,0 3450,-1161 5243,-3484l2920 2258c-3252,4810 -6604,8328 -10088,10486 -3453,2192 -7401,3286 -11816,3286 -5177,0 -9260,-1229 -12179,-3650 -2920,-2455 -4679,-6140 -5344,-11085zm0 -7169l0 -30266c-7833,4612 -13672,9523 -17523,14769 -2521,3484 -3781,7034 -3781,10587 0,2985 1060,5607 3217,7864 1627,1759 3882,2622 6805,2622 3251,0 7002,-1860 11282,-5576zm49383 20709l0 -3386c3750,0 6372,-960 7899,-2885 1493,-1926 2258,-5610 2258,-11054l0 -55952c0,-5808 -731,-9658 -2227,-11515 -1492,-1894 -4114,-2822 -7930,-2822l0 -3387 46397 0 0 3387c-3286,132 -5610,994 -6936,2556 -1361,1593 -2026,5177 -2026,10784l0 23894 26087 0 0 -23894c0,-4613 -499,-7997 -1461,-10120 -963,-2157 -3418,-3220 -7301,-3220l0 -3387 46197 0 0 3387c-3750,0 -6372,928 -7899,2822 -1496,1891 -2258,5077 -2258,9524l0 57943c0,5742 731,9492 2223,11185 1493,1694 4115,2622 7934,2754l0 3386 -46197 0 0 -3386c3252,-66 5507,-828 6802,-2321 1295,-1496 1960,-5146 1960,-11019l0 -27282 -26087 0 0 26683c0,5811 665,9592 2026,11352 1326,1724 3650,2587 6936,2587l0 3386 -46397 0z"/>
   <g id="_704278156624">
    <polyline class="fil1 str3" points="0,203172 0,430 189791,430 "/>
    <polyline class="fil1 str3" points="2822222,203172 2822222,430 2632431,430 "/>
    <polyline class="fil1 str3" points="0,1364726 0,1567468 189791,1567468 "/>
    <polyline class="fil1 str3" points="2822222,1364726 2822222,1567468 2632431,1567468 "/>
   </g>
  </g>
 </g>
</svg>
