<svg width="54" height="20" viewBox="0 0 54 20" xmlns="http://www.w3.org/2000/svg">
  <path d="M6.798 15.838L3.576 3.598l-.018-.054c0-.096.06-.144.18-.144h1.476c.12 0 .186.054.198.162l2.34 9.648c.012.036.024.054.036.054.012 0 .024-.018.036-.054l2.34-9.648c.024-.108.09-.162.198-.162h1.422c.06 0 .105.018.135.054.03.036.039.084.027.144l-3.258 12.24c-.024.108-.09.162-.198.162H6.996c-.108 0-.174-.054-.198-.162zm7.509-10.683c-.216-.21-.324-.483-.324-.819 0-.336.108-.609.324-.819.216-.21.492-.315.828-.315.336 0 .609.105.819.315.21.21.315.483.315.819 0 .336-.105.609-.315.819-.21.21-.483.315-.819.315-.336 0-.612-.105-.828-.315zm-.036 10.665V7.018c0-.12.06-.18.18-.18h1.368c.12 0 .18.06.18.18v8.802c0 .12-.06.18-.18.18h-1.368c-.12 0-.18-.06-.18-.18zm5.106-.396c-.594-.456-.891-1.044-.891-1.764v-.18c0-.12.06-.18.18-.18h1.296c.12 0 .18.048.18.144v.144c0 .336.153.621.459.855.306.234.693.351 1.161.351.456 0 .822-.114 1.098-.342.276-.228.414-.51.414-.846a.895.895 0 0 0-.243-.648 1.829 1.829 0 0 0-.594-.405 14.629 14.629 0 0 0-1.035-.387 9.73 9.73 0 0 1-1.431-.567 2.867 2.867 0 0 1-.999-.846c-.276-.366-.414-.831-.414-1.395 0-.804.285-1.44.855-1.908.57-.468 1.329-.702 2.277-.702.972 0 1.749.24 2.331.72.582.48.873 1.11.873 1.89v.036c0 .12-.06.18-.18.18h-1.26c-.12 0-.18-.042-.18-.126v-.126c0-.348-.144-.636-.432-.864-.288-.228-.666-.342-1.134-.342-.444 0-.804.108-1.08.324a1.007 1.007 0 0 0-.414.828c0 .252.078.459.234.621.156.162.351.297.585.405.234.108.579.24 1.035.396.6.204 1.095.402 1.485.594.39.192.729.468 1.017.828.288.36.432.822.432 1.386 0 .804-.294 1.44-.882 1.908-.588.468-1.38.702-2.376.702-.984 0-1.773-.228-2.367-.684zm8.004-10.269c-.216-.21-.324-.483-.324-.819 0-.336.108-.609.324-.819.216-.21.492-.315.828-.315.336 0 .609.105.819.315.21.21.315.483.315.819 0 .336-.105.609-.315.819-.21.21-.483.315-.819.315-.336 0-.612-.105-.828-.315zm-.036 10.665V7.018c0-.12.06-.18.18-.18h1.368c.12 0 .18.06.18.18v8.802c0 .12-.06.18-.18.18h-1.368c-.12 0-.18-.06-.18-.18zm5.61-.396c-.606-.48-.975-1.14-1.107-1.98a13.258 13.258 0 0 1-.162-2.034c0-.744.048-1.416.144-2.016.132-.828.501-1.485 1.107-1.971s1.371-.729 2.295-.729c.9 0 1.647.243 2.241.729.594.486.963 1.137 1.107 1.953.108.708.162 1.38.162 2.016 0 .66-.054 1.344-.162 2.052-.144.84-.513 1.5-1.107 1.98s-1.341.72-2.241.72c-.912 0-1.671-.24-2.277-.72zm3.375-1.188c.3-.276.486-.642.558-1.098.072-.504.108-1.08.108-1.728 0-.6-.03-1.17-.09-1.71-.072-.456-.261-.822-.567-1.098-.306-.276-.681-.414-1.125-.414-.444 0-.819.138-1.125.414-.306.276-.495.642-.567 1.098a15.5 15.5 0 0 0-.09 1.71c0 .612.03 1.188.09 1.728.072.456.261.822.567 1.098.306.276.687.414 1.143.414.432 0 .798-.138 1.098-.414zm10.821-6.714c.492.54.738 1.284.738 2.232v6.066c0 .12-.06.18-.18.18h-1.368c-.12 0-.18-.06-.18-.18v-5.814c0-.552-.141-.99-.423-1.314-.282-.324-.663-.486-1.143-.486-.492 0-.885.165-1.179.495-.294.33-.441.771-.441 1.323v5.796c0 .12-.06.18-.18.18h-1.368c-.12 0-.18-.06-.18-.18V7.018c0-.12.06-.18.18-.18h1.368c.12 0 .18.06.18.18v.558c0 .036.009.057.027.063.018.006.039-.009.063-.045.468-.588 1.152-.882 2.052-.882.864 0 1.542.27 2.034.81z" fill="#111" fill-rule="evenodd"/>
</svg>
